<svg id="Layer_1" data-name="Layer 1" xmlns="http://www.w3.org/2000/svg" viewBox="0 0 24 24"><title>department</title><path d="M16.61,16.31V17a.32.32,0,0,1-.1.24.33.33,0,0,1-.24.1h-.68a.33.33,0,0,1-.24-.1.32.32,0,0,1-.1-.24v-.68a.32.32,0,0,1,.1-.24.33.33,0,0,1,.24-.1h.68a.33.33,0,0,1,.24.1.32.32,0,0,1,.1.24m0-2.7v.68a.32.32,0,0,1-.1.24.33.33,0,0,1-.24.1h-.68a.33.33,0,0,1-.24-.1.32.32,0,0,1-.1-.24v-.68a.32.32,0,0,1,.1-.24.33.33,0,0,1,.24-.1h.68a.33.33,0,0,1,.24.1.32.32,0,0,1,.1.24m0-2.7v.68a.32.32,0,0,1-.1.24.33.33,0,0,1-.24.1h-.68a.33.33,0,0,1-.24-.1.32.32,0,0,1-.1-.24v-.68a.32.32,0,0,1,.1-.24.33.33,0,0,1,.24-.1h.68a.33.33,0,0,1,.24.1.32.32,0,0,1,.1.24m0-2.7v.68a.32.32,0,0,1-.1.24.33.33,0,0,1-.24.1h-.68a.33.33,0,0,1-.24-.1.32.32,0,0,1-.1-.24V8.2a.32.32,0,0,1,.1-.24.33.33,0,0,1,.24-.1h.68a.33.33,0,0,1,.24.1.32.32,0,0,1,.1.24m0-2.7v.68a.32.32,0,0,1-.1.24.33.33,0,0,1-.24.1h-.68a.33.33,0,0,1-.24-.1.32.32,0,0,1-.1-.24V5.5a.32.32,0,0,1,.1-.24.33.33,0,0,1,.24-.1h.68a.33.33,0,0,1,.24.1.32.32,0,0,1,.1.24m-2.73,8.11v.68a.32.32,0,0,1-.1.24.33.33,0,0,1-.24.1h-.68a.33.33,0,0,1-.24-.1.32.32,0,0,1-.1-.24v-.68a.33.33,0,0,1,.1-.24.33.33,0,0,1,.24-.1h.68a.33.33,0,0,1,.24.1.32.32,0,0,1,.1.24m0-2.7v.68a.32.32,0,0,1-.1.24.33.33,0,0,1-.24.1h-.68a.33.33,0,0,1-.24-.1.33.33,0,0,1-.1-.24v-.68a.33.33,0,0,1,.1-.24.33.33,0,0,1,.24-.1h.68a.33.33,0,0,1,.24.1.32.32,0,0,1,.1.24m0-2.7v.68a.33.33,0,0,1-.1.24.33.33,0,0,1-.24.1h-.68a.33.33,0,0,1-.24-.1.33.33,0,0,1-.1-.24V8.2a.33.33,0,0,1,.1-.24.33.33,0,0,1,.24-.1h.68a.33.33,0,0,1,.24.1.32.32,0,0,1,.1.24m0-2.7v.68a.33.33,0,0,1-.1.24.33.33,0,0,1-.24.1h-.68a.33.33,0,0,1-.24-.1.33.33,0,0,1-.1-.24V5.5a.33.33,0,0,1,.1-.24.33.33,0,0,1,.24-.1h.68a.33.33,0,0,1,.24.1.33.33,0,0,1,.1.24m-2.73,8.11v.68a.32.32,0,0,1-.1.24.33.33,0,0,1-.24.1h-.68a.33.33,0,0,1-.24-.1.32.32,0,0,1-.1-.24v-.68a.32.32,0,0,1,.1-.24.33.33,0,0,1,.24-.1h.68a.33.33,0,0,1,.24.1.32.32,0,0,1,.1.24m0-2.7v.68a.32.32,0,0,1-.1.24.33.33,0,0,1-.24.1h-.68a.33.33,0,0,1-.24-.1.32.32,0,0,1-.1-.24v-.68a.32.32,0,0,1,.1-.24.33.33,0,0,1,.24-.1h.68a.33.33,0,0,1,.24.1.32.32,0,0,1,.1.24m0-2.7v.68a.32.32,0,0,1-.1.24.33.33,0,0,1-.24.1h-.68a.33.33,0,0,1-.24-.1.32.32,0,0,1-.1-.24V8.2A.32.32,0,0,1,9.89,8a.33.33,0,0,1,.24-.1h.68a.33.33,0,0,1,.24.1.32.32,0,0,1,.1.24m0-2.7v.68a.32.32,0,0,1-.1.24.33.33,0,0,1-.24.1h-.68a.33.33,0,0,1-.24-.1.32.32,0,0,1-.1-.24V5.5a.32.32,0,0,1,.1-.24.33.33,0,0,1,.24-.1h.68a.33.33,0,0,1,.24.1.32.32,0,0,1,.1.24M8.43,16.31V17a.32.32,0,0,1-.1.24.33.33,0,0,1-.24.1H7.41a.33.33,0,0,1-.24-.1.32.32,0,0,1-.1-.24v-.68a.32.32,0,0,1,.1-.24.33.33,0,0,1,.24-.1h.68a.33.33,0,0,1,.24.1.33.33,0,0,1,.1.24m0-2.7v.68a.32.32,0,0,1-.1.24.33.33,0,0,1-.24.1H7.41a.33.33,0,0,1-.24-.1.32.32,0,0,1-.1-.24v-.68a.32.32,0,0,1,.1-.24.33.33,0,0,1,.24-.1h.68a.33.33,0,0,1,.24.1.33.33,0,0,1,.1.24m0-2.7v.68a.33.33,0,0,1-.1.24.33.33,0,0,1-.24.1H7.41a.33.33,0,0,1-.24-.1.32.32,0,0,1-.1-.24v-.68a.32.32,0,0,1,.1-.24.33.33,0,0,1,.24-.1h.68a.33.33,0,0,1,.24.1.33.33,0,0,1,.1.24m0-2.7v.68a.34.34,0,0,1-.34.34H7.41a.35.35,0,0,1-.34-.34V8.2A.32.32,0,0,1,7.17,8a.33.33,0,0,1,.24-.1h.68a.33.33,0,0,1,.24.1.33.33,0,0,1,.1.24m0-2.7v.68a.33.33,0,0,1-.1.24.33.33,0,0,1-.24.1H7.41a.33.33,0,0,1-.24-.1.32.32,0,0,1-.1-.24V5.5a.34.34,0,0,1,.34-.34h.68a.33.33,0,0,1,.24.1.33.33,0,0,1,.1.24M13.88,20H18V3.81H5.7V20H9.79V17.67a.32.32,0,0,1,.1-.24.33.33,0,0,1,.24-.1h3.41a.33.33,0,0,1,.24.1.33.33,0,0,1,.1.24Zm5.45-16.9V20.71a.65.65,0,0,1-.2.48.66.66,0,0,1-.48.2H5a.66.66,0,0,1-.48-.2.65.65,0,0,1-.2-.48V3.14a.65.65,0,0,1,.2-.48A.66.66,0,0,1,5,2.46H18.66a.66.66,0,0,1,.48.2.65.65,0,0,1,.2.48"/></svg>