<svg width="72" height="72" viewBox="0 0 72 72" fill="none" xmlns="http://www.w3.org/2000/svg">
<path d="M36 72C55.8823 72 72 55.8823 72 36C72 16.1177 55.8823 0 36 0C16.1177 0 0 16.1177 0 36C0 55.8823 16.1177 72 36 72Z" fill="#00A8E1"/>
<path d="M47.8701 42.53C47.7341 42.5989 47.6131 42.6939 47.5139 42.8096C47.4146 42.9253 47.3392 43.0595 47.2918 43.2043C47.2445 43.3492 47.2261 43.502 47.2378 43.654C47.2496 43.806 47.2911 43.9541 47.3601 44.09C47.6193 44.6013 47.7529 45.1669 47.7501 45.74C47.7501 46.4723 47.5329 47.188 47.1258 47.7967C46.7188 48.4054 46.1404 48.8796 45.4637 49.1593C44.7871 49.4391 44.0426 49.5118 43.3246 49.3682C42.6066 49.2246 41.9473 48.8712 41.4303 48.3528C40.9132 47.8343 40.5616 47.1741 40.42 46.4557C40.2784 45.7373 40.3531 44.9931 40.6346 44.3172C40.9162 43.6413 41.392 43.0641 42.0018 42.6587C42.6116 42.2534 43.3279 42.0381 44.0601 42.04C44.3479 42.0132 44.6153 41.88 44.81 41.6663C45.0046 41.4527 45.1125 41.1741 45.1125 40.885C45.1125 40.596 45.0046 40.3174 44.81 40.1038C44.6153 39.8901 44.3479 39.7568 44.0601 39.73C43.1571 39.7288 42.2655 39.9314 41.4517 40.3227C40.6379 40.714 39.923 41.2839 39.3601 41.99L31.7201 37.64C32.0402 36.5565 32.0402 35.4036 31.7201 34.32L39.3301 30C40.0997 30.9918 41.1609 31.7171 42.3644 32.0741C43.5679 32.431 44.853 32.4014 46.0388 31.9896C47.2246 31.5778 48.2514 30.8044 48.9746 29.7783C49.6978 28.7523 50.0809 27.5253 50.0701 26.27C50.0744 25.3352 49.855 24.4128 49.4301 23.58C49.3622 23.4444 49.2682 23.3236 49.1534 23.2245C49.0386 23.1253 48.9053 23.0499 48.7612 23.0025C48.6172 22.9551 48.4651 22.9367 48.3139 22.9483C48.1627 22.9598 48.0153 23.0012 47.8801 23.07C47.6064 23.2074 47.3981 23.4475 47.3006 23.7379C47.2032 24.0282 47.2246 24.3454 47.3601 24.62C47.6213 25.1309 47.7583 25.6962 47.7601 26.27C47.7601 27.0018 47.5431 27.7172 47.1366 28.3256C46.73 28.9341 46.1521 29.4083 45.476 29.6884C44.7999 29.9684 44.056 30.0417 43.3383 29.8989C42.6206 29.7562 41.9613 29.4038 41.4438 28.8863C40.9264 28.3689 40.574 27.7096 40.4312 26.9919C40.2884 26.2741 40.3617 25.5302 40.6418 24.8541C40.9218 24.178 41.396 23.6002 42.0045 23.1936C42.613 22.787 43.3283 22.57 44.0601 22.57C44.3479 22.5432 44.6153 22.41 44.81 22.1963C45.0046 21.9827 45.1125 21.7041 45.1125 21.415C45.1125 21.126 45.0046 20.8474 44.81 20.6338C44.6153 20.4201 44.3479 20.2868 44.0601 20.26C43.1281 20.2574 42.2083 20.4719 41.3735 20.8866C40.5388 21.3012 39.8122 21.9047 39.2513 22.649C38.6903 23.3934 38.3105 24.2582 38.142 25.1748C37.9734 26.0915 38.0207 27.0348 38.2801 27.93L29.7201 32.8C29.4894 32.9318 29.3109 33.1387 29.2144 33.3862C29.1179 33.6338 29.1094 33.9069 29.1901 34.16C29.2159 34.2318 29.2459 34.3019 29.2801 34.37C29.6293 35.0926 29.7341 35.9091 29.5787 36.6964C29.4234 37.4837 29.0162 38.1992 28.4187 38.7349C27.8212 39.2706 27.0657 39.5975 26.2662 39.6664C25.4666 39.7352 24.6664 39.5423 23.9861 39.1166C23.3058 38.6909 22.7823 38.0555 22.4947 37.3064C22.207 36.5572 22.1707 35.7348 22.3912 34.9632C22.6118 34.1916 23.0772 33.5126 23.7173 33.0286C24.3575 32.5446 25.1376 32.2819 25.9401 32.28C26.1008 32.295 26.2629 32.2763 26.4159 32.225C26.569 32.1738 26.7097 32.0912 26.829 31.9825C26.9483 31.8738 27.0436 31.7414 27.1088 31.5937C27.174 31.4461 27.2077 31.2864 27.2077 31.125C27.2077 30.9636 27.174 30.804 27.1088 30.6564C27.0436 30.5087 26.9483 30.3763 26.829 30.2676C26.7097 30.1589 26.569 30.0763 26.4159 30.025C26.2629 29.9738 26.1008 29.9551 25.9401 29.97C24.9252 29.9735 23.9277 30.2343 23.0411 30.7281C22.1544 31.222 21.4074 31.9326 20.8702 32.7937C20.3329 33.6547 20.0228 34.638 19.9689 35.6515C19.915 36.665 20.1191 37.6756 20.5621 38.5887C21.0051 39.5019 21.6724 40.2877 22.5018 40.8728C23.3311 41.4579 24.2953 41.823 25.3041 41.934C26.3129 42.045 27.3335 41.8983 28.2702 41.5076C29.2069 41.1169 30.0292 40.495 30.6601 39.7L38.2801 44C38.0118 44.9367 37.9756 45.9247 38.1748 46.8785C38.3739 47.8324 38.8024 48.7233 39.4231 49.4744C40.0438 50.2255 40.8381 50.8141 41.7373 51.1894C42.6365 51.5647 43.6136 51.7153 44.5841 51.6283C45.5546 51.5412 46.4893 51.2192 47.3074 50.6899C48.1255 50.1606 48.8024 49.44 49.2795 48.5904C49.7567 47.7409 50.0197 46.7879 50.046 45.8139C50.0722 44.8398 49.8608 43.8741 49.4301 43C49.284 42.7324 49.0385 42.533 48.7465 42.4451C48.4546 42.3571 48.1397 42.3876 47.8701 42.53V42.53Z" fill="white"/>
</svg>
