<svg width="72" height="72" viewBox="0 0 72 72" fill="none" xmlns="http://www.w3.org/2000/svg">
<path d="M36 72C55.8823 72 72 55.8823 72 36C72 16.1177 55.8823 0 36 0C16.1177 0 0 16.1177 0 36C0 55.8823 16.1177 72 36 72Z" fill="#00A8E1"/>
<path d="M41.9999 36.57C41.8421 36.3976 41.6222 36.295 41.3888 36.2847C41.1553 36.2744 40.9273 36.3572 40.7549 36.515C40.5825 36.6728 40.4798 36.8926 40.4695 37.1261C40.4592 37.3596 40.5421 37.5876 40.6999 37.76C41.7848 38.9405 42.3848 40.4867 42.3799 42.09V45.88C42.3812 45.9229 42.3739 45.9656 42.3584 46.0056C42.343 46.0455 42.3196 46.082 42.2898 46.1128C42.2599 46.1436 42.2242 46.168 42.1847 46.1847C42.1452 46.2014 42.1027 46.21 42.0599 46.21H29.9299C29.887 46.21 29.8445 46.2014 29.8051 46.1847C29.7656 46.168 29.7298 46.1436 29.7 46.1128C29.6701 46.082 29.6468 46.0455 29.6313 46.0056C29.6158 45.9656 29.6085 45.9229 29.6099 45.88V42.09C29.6099 40.3953 30.2831 38.77 31.4815 37.5716C32.6798 36.3733 34.3051 35.7 35.9999 35.7C37.1553 35.702 38.2854 35.3612 39.2471 34.7207C40.2088 34.0802 40.9589 33.1688 41.4024 32.1018C41.846 31.0349 41.9631 29.8603 41.7389 28.7268C41.5147 27.5933 40.9592 26.5518 40.1429 25.7341C39.3266 24.9163 38.286 24.3591 37.1529 24.133C36.0198 23.9068 34.845 24.0219 33.7773 24.4636C32.7096 24.9053 31.7969 25.6538 31.1548 26.6144C30.5126 27.575 30.1699 28.7045 30.1699 29.86C30.1705 30.8258 30.4074 31.7768 30.8599 32.63C30.9713 32.8356 31.1597 32.9884 31.3838 33.055C31.608 33.1216 31.8493 33.0964 32.0549 32.985C32.2604 32.8736 32.4133 32.6851 32.4799 32.461C32.5464 32.2369 32.5213 31.9956 32.4099 31.79C32.0958 31.1951 31.9311 30.5327 31.9299 29.86C31.9299 29.0526 32.1694 28.2634 32.6182 27.5923C33.0669 26.9211 33.7047 26.3981 34.4508 26.0896C35.1969 25.7811 36.0178 25.7009 36.8095 25.8592C37.6012 26.0174 38.3282 26.407 38.8984 26.9786C39.4686 27.5502 39.8564 28.2781 40.0127 29.0702C40.169 29.8623 40.0868 30.683 39.7764 31.4283C39.4661 32.1737 38.9416 32.8102 38.2693 33.2573C37.597 33.7044 36.8072 33.942 35.9999 33.94C33.8382 33.9427 31.7658 34.8018 30.2363 36.3294C28.7069 37.857 27.8452 39.9284 27.8399 42.09V45.89C27.8386 46.1658 27.8916 46.4391 27.9959 46.6944C28.1002 46.9497 28.2538 47.1819 28.4479 47.3779C28.6419 47.5738 28.8727 47.7296 29.127 47.8363C29.3813 47.9431 29.6541 47.9987 29.9299 48H42.0699C42.6234 47.9974 43.1534 47.7763 43.5448 47.385C43.9362 46.9936 44.1572 46.4635 44.1599 45.91V42.11C44.1652 40.0569 43.3936 38.0777 41.9999 36.57" fill="white"/>
</svg>
