<svg width="72" height="72" viewBox="0 0 72 72" fill="none" xmlns="http://www.w3.org/2000/svg">
<path d="M36 72C55.8823 72 72 55.8823 72 36C72 16.1177 55.8823 0 36 0C16.1177 0 0 16.1177 0 36C0 55.8823 16.1177 72 36 72Z" fill="#00A8E1"/>
<path d="M42.6799 44.49C41.0951 46.0363 39.2633 47.3071 37.2599 48.25C38.1961 46.2397 39.4676 44.4035 41.0199 42.82C42.6045 41.2761 44.4365 40.0086 46.4399 39.07C45.4983 41.0741 44.2274 42.9062 42.6799 44.49V44.49ZM29.3099 44.49C27.7661 42.9054 26.4985 41.0734 25.5599 39.07C27.5633 40.0086 29.3953 41.2761 30.9799 42.82C32.5323 44.4035 33.8038 46.2397 34.7399 48.25C32.7346 47.3053 30.8998 46.0347 29.3099 44.49V44.49ZM34.9399 25.65C35.1602 24.9209 35.5202 24.2416 35.9999 23.65C36.4797 24.2416 36.8397 24.9209 37.0599 25.65C37.0599 25.9311 36.9483 26.2007 36.7495 26.3995C36.5507 26.5983 36.2811 26.71 35.9999 26.71C35.7188 26.71 35.4492 26.5983 35.2504 26.3995C35.0516 26.2007 34.9399 25.9311 34.9399 25.65ZM30.9399 37.19C29.8672 36.0942 28.97 34.8394 28.2799 33.47C31.06 34.8236 33.3063 37.0699 34.6599 39.85C33.2926 39.1564 32.0384 38.2595 30.9399 37.19V37.19ZM32.5899 30.99C32.0138 30.4048 31.5132 29.7497 31.0999 29.04C32.5327 29.8596 33.7203 31.0472 34.5399 32.48C33.8302 32.0667 33.1751 31.5662 32.5899 30.99V30.99ZM38.8899 30.53C39.4906 29.9504 40.1627 29.4497 40.8899 29.04C40.4767 29.7497 39.9761 30.4048 39.3999 30.99C38.8121 31.566 38.1575 32.0696 37.4499 32.49C37.8627 31.7647 38.3631 31.093 38.9399 30.49L38.8899 30.53ZM39.9899 36.08C41.0858 35.01 42.3406 34.1161 43.7099 33.43C42.3456 36.2025 40.1024 38.4457 37.3299 39.81C38.0185 38.4366 38.9158 37.1783 39.9899 36.08V36.08ZM48.1999 37.29C48.1107 37.2025 47.9991 37.1413 47.8774 37.1131C47.7557 37.0848 47.6285 37.0907 47.5099 37.13C44.7272 38.1505 42.1942 39.7528 40.0799 41.83C38.7454 43.1806 37.6076 44.7123 36.6999 46.38V41.58C38.6789 40.7753 40.4824 39.5934 42.0099 38.1C43.6222 36.4574 44.8664 34.4905 45.6599 32.33C45.7002 32.2115 45.7065 32.0842 45.6781 31.9623C45.6497 31.8405 45.5878 31.729 45.4994 31.6406C45.4109 31.5521 45.2994 31.4902 45.1776 31.4618C45.0557 31.4334 44.9284 31.4397 44.8099 31.48C42.6458 32.2722 40.6754 33.5165 39.0299 35.13C38.1317 36.0293 37.349 37.0371 36.6999 38.13V34.31C38.0565 33.7329 39.2942 32.9089 40.3499 31.88C41.5014 30.7066 42.3909 29.3024 42.9599 27.76C43.0001 27.6399 43.0064 27.511 42.9782 27.3875C42.9499 27.2641 42.8883 27.1507 42.7999 27.06C42.7107 26.9725 42.5991 26.9113 42.4774 26.883C42.3557 26.8548 42.2285 26.8607 42.1099 26.9C40.5674 27.4687 39.1632 28.3583 37.9899 29.51C37.5077 29.9882 37.0755 30.5142 36.6999 31.08V28C37.1973 27.8504 37.6337 27.5453 37.945 27.1296C38.2563 26.7139 38.4263 26.2094 38.4299 25.69C38.3229 24.8436 37.9759 24.0455 37.4299 23.39C37.1514 22.9518 36.8511 22.5279 36.5299 22.12C36.4673 22.039 36.387 21.9735 36.2951 21.9284C36.2033 21.8833 36.1023 21.8599 35.9999 21.8599C35.8976 21.8599 35.7966 21.8833 35.7047 21.9284C35.6129 21.9735 35.5325 22.039 35.4699 22.12C35.1488 22.5279 34.8484 22.9518 34.5699 23.39C34.024 24.0455 33.677 24.8436 33.5699 25.69C33.5742 26.2106 33.7456 26.7161 34.0589 27.132C34.3721 27.5479 34.8107 27.8522 35.3099 28V31.19C34.9275 30.6265 34.4922 30.1008 34.0099 29.62C32.8367 28.4683 31.4324 27.5787 29.8899 27.01C29.7713 26.9707 29.6442 26.9648 29.5225 26.993C29.4007 27.0213 29.2891 27.0825 29.1999 27.17C29.1116 27.2607 29.0499 27.3741 29.0217 27.4975C28.9935 27.621 28.9998 27.7499 29.0399 27.87C29.609 29.4124 30.4985 30.8166 31.6499 31.99C32.7072 33.0218 33.9487 33.846 35.3099 34.42V38.24C34.6539 37.1492 33.8682 36.1419 32.9699 35.24C31.3244 33.6265 29.354 32.3822 27.1899 31.59C27.0715 31.5497 26.9441 31.5434 26.8223 31.5718C26.7004 31.6002 26.589 31.6621 26.5005 31.7506C26.4121 31.839 26.3501 31.9505 26.3217 32.0723C26.2934 32.1942 26.2997 32.3215 26.3399 32.44C27.0898 34.5366 28.2815 36.4476 29.8343 38.0435C31.387 39.6394 33.2647 40.883 35.3399 41.69V46.49C34.425 44.8244 33.2842 43.2932 31.9499 41.94C29.8357 39.8628 27.3027 38.2605 24.5199 37.24C24.4015 37.1997 24.2741 37.1934 24.1523 37.2218C24.0305 37.2502 23.919 37.3121 23.8305 37.4006C23.7421 37.489 23.6801 37.6005 23.6517 37.7223C23.6234 37.8442 23.6297 37.9715 23.6699 38.09C24.6904 40.8727 26.2927 43.4057 28.3699 45.52C30.4906 47.5891 33.0218 49.1903 35.7999 50.22H36.2199C38.9981 49.1903 41.5293 47.5891 43.6499 45.52C45.7271 43.4057 47.3295 40.8727 48.3499 38.09C48.3892 37.9714 48.3951 37.8442 48.3669 37.7225C48.3386 37.6008 48.2774 37.4892 48.1899 37.4" fill="white"/>
</svg>
