<svg viewBox="0 0 19 19" xmlns="http://www.w3.org/2000/svg">
<path fill-rule="evenodd" clip-rule="evenodd" d="M8 6H2C0.895431 6 0 6.89543 0 8V17C0 18.1046 0.89543 19 2 19H11C12.1046 19 13 18.1046 13 17V13H12V17C12 17.5523 11.5523 18 11 18H2C1.44772 18 1 17.5523 1 17V8C1 7.44772 1.44772 7 2 7H8V6Z" fill="#7f7f7f"/>
<path d="M7 11.9393L13 6" stroke="#7f7f7f" stroke-width="1.5" stroke-linecap="round" stroke-linejoin="round"/>
<path d="M10.6652 4.11352L15.1046 3.8568L14.8479 8.29627L10.6652 4.11352Z" fill="#7f7f7f" stroke="#7f7f7f"/>
</svg>
