<svg width="45" height="35" viewBox="0 0 45 35" fill="none" xmlns="http://www.w3.org/2000/svg">
<path d="M33.7104 17.5705H42.8267C43.5338 17.5705 44.1057 16.9973 44.1057 16.2914V1.27908C44.1057 0.571959 43.5313 -0.0012495 42.8242 2.04558e-06L26.4201 0.0287871C25.7143 0.0287871 25.1436 0.601996 25.1436 1.30787V19.7369C25.1436 23.2362 26.2524 26.658 28.37 29.4439C28.4239 29.514 28.4777 29.5841 28.5315 29.6529C30.9044 32.6679 34.5602 34.39 38.3962 34.39H40.9969L40.878 28.4214H39.6202C35.8731 28.4214 32.6403 25.6893 32.1284 21.9772C31.9745 20.857 32.0659 19.638 32.564 18.3589C32.7492 17.8846 33.2023 17.5705 33.7104 17.5705Z" fill="#002145"/>
<path d="M8.56684 17.5705H17.6831C18.3902 17.5705 18.9622 16.9973 18.9622 16.2914V1.27908C18.9622 0.571959 18.3877 -0.0012495 17.6806 2.04558e-06L1.27658 0.0287871C0.570705 0.0287871 0 0.601996 0 1.30787V19.7369C0 23.2362 1.10887 26.658 3.22649 29.4439C3.2803 29.514 3.33412 29.5841 3.38919 29.6529C5.76212 32.6679 9.41789 34.39 13.2539 34.39H15.8546L15.7357 28.4214H14.4779C10.7308 28.4214 7.49802 25.6893 6.98614 21.9772C6.8322 20.857 6.92356 19.638 7.42167 18.3589C7.6069 17.8846 8.05996 17.5705 8.56809 17.5705H8.56684Z" fill="#002145"/>
</svg>
