<svg id="Layer_1" data-name="Layer 1" xmlns="http://www.w3.org/2000/svg" viewBox="0 0 279.56 259.82"><defs><style>.cls-1{fill:#122e44}</style></defs><path class="cls-1" d="M22.66 90.08h27.31v27.31H22.66zm43.34 0h27.31v27.31H66zm43.35 0h27.31v27.31h-27.31zm43.35 0h27.31v27.31H152.7zM22.66 140.15h27.31v27.31H22.66zm43.34 0h27.31v27.31H66zm-43.34 52.63h27.31v27.31H22.66zm43.34 0h27.31v27.31H66z"/><path class="cls-1" d="M132.94 62.75a6.62 6.62 0 0 0 6.62-6.62V26.47a6.63 6.63 0 0 0-13.25 0v29.66a6.62 6.62 0 0 0 6.63 6.62zm57.93 0a6.62 6.62 0 0 0 6.62-6.62V26.47a6.62 6.62 0 0 0-13.24 0v29.66a6.62 6.62 0 0 0 6.62 6.62zm31.13 68.7a79 79 0 0 1 11.78.88v-22.4h-27.3V133a78.83 78.83 0 0 1 15.52-1.55zM147.1 160h-27.31v27.32h26.58c.23-.75.48-1.48.73-2.21zm-27.31 52.63v27.31h27.31v-3.85a78.89 78.89 0 0 1-4.18-23.46z" transform="translate(-10.44 -19.85)"/><path class="cls-1" d="M33.62 266.43a10 10 0 0 1-9.94-9.94v-173h218.51v50.61a78.28 78.28 0 0 1 13.24 4.81v-81a23.21 23.21 0 0 0-23.17-23.18h-24.83v13.19h24.83a10 10 0 0 1 9.93 9.94V70.2H23.68V57.86a10 10 0 0 1 9.94-9.94h24.83V34.68H33.62a23.21 23.21 0 0 0-23.18 23.18v198.63a23.21 23.21 0 0 0 23.18 23.18h149.81A79.6 79.6 0 0 1 166 266.43z" transform="translate(-10.44 -19.85)"/><path class="cls-1" d="M81.11 14.83h24.83v13.24H81.11zm57.94 0h24.83v13.24h-24.83z"/><path class="cls-1" d="M75 62.75a6.62 6.62 0 0 0 6.62-6.62V26.47a6.62 6.62 0 0 0-13.24 0v29.66A6.62 6.62 0 0 0 75 62.75zm147 100.39a5.82 5.82 0 0 0-5.8 5.86v39.6l-15.89 15.89a5.82 5.82 0 1 0 8.23 8.24l16.92-16.9c.11-.12.19-.25.29-.37a5.76 5.76 0 0 0 2.11-4.45V169a5.82 5.82 0 0 0-5.86-5.86z" transform="translate(-10.44 -19.85)"/><path class="cls-1" d="M290 211a68 68 0 1 0-68 68 68 68 0 0 0 68-68zm-37.34 47.21l-1.6-2.76a2.92 2.92 0 0 0-5.05 2.94l1.6 2.74a55.68 55.68 0 0 1-20.24 5.94 5.82 5.82 0 0 0-10.68 0 55.92 55.92 0 0 1-20.24-5.93l1.59-2.77a2.92 2.92 0 1 0-5.06-2.9l-1.58 2.75a56.66 56.66 0 0 1-16.59-16.59l2.76-1.58a2.91 2.91 0 0 0-2.88-5.06l-2.8 1.59a56.07 56.07 0 0 1-5.89-20.23 5.83 5.83 0 0 0 0-10.69 55.67 55.67 0 0 1 5.93-20.23l2.79 1.6a2.91 2.91 0 0 0 4-1.08 2.91 2.91 0 0 0-1.07-4l-2.77-1.58A56.34 56.34 0 0 1 218 154.89v.45a5.83 5.83 0 1 0 11.65 0v-.09a55.78 55.78 0 0 1 20.79 7.18 2.79 2.79 0 0 0-.94 1l-1.71 3a2.92 2.92 0 0 0 5.06 2.91l1.7-3a2.84 2.84 0 0 0 .33-1 56.59 56.59 0 0 1 14.4 15.07l-2.79 1.59a2.91 2.91 0 0 0 1.45 5.44 2.86 2.86 0 0 0 1.46-.39l2.74-1.58a55.62 55.62 0 0 1 5.93 20.22 5.82 5.82 0 0 0 0 10.68 56.12 56.12 0 0 1-5.93 20.24l-2.75-1.61a2.91 2.91 0 0 0-2.9 5.05l2.75 1.58a56.71 56.71 0 0 1-16.58 16.58z" transform="translate(-10.44 -19.85)"/><path class="cls-1" d="M199.79 166.36l-1.7-3a2.92 2.92 0 0 0-5.09 2.94l1.71 3a2.91 2.91 0 1 0 5-2.91z" transform="translate(-10.44 -19.85)"/></svg>