<svg width="72" height="72" viewBox="0 0 72 72" fill="none" xmlns="http://www.w3.org/2000/svg">
<path d="M36 72C55.8823 72 72 55.8823 72 36C72 16.1177 55.8823 0 36 0C16.1177 0 0 16.1177 0 36C0 55.8823 16.1177 72 36 72Z" fill="#00A8E1"/>
<path d="M52.45 32.6401L36.64 25.6401C36.4024 25.5454 36.1376 25.5454 35.9 25.6401L19.53 32.6401C19.3687 32.7115 19.2307 32.8268 19.1319 32.9729C19.033 33.119 18.9773 33.29 18.9711 33.4663C18.9648 33.6426 19.0083 33.8171 19.0965 33.9698C19.1847 34.1226 19.3142 34.2474 19.47 34.3301L28.09 38.7401C28.2428 38.8736 28.4355 38.9529 28.6381 38.9656C28.8407 38.9783 29.0418 38.9236 29.21 38.8101C36.21 34.1601 41.21 37.7101 42.35 38.7201V42.1301C40.0778 41.8766 37.7971 42.5267 36 43.9401C34.2111 42.5253 31.9372 41.8715 29.67 42.1201V40.7601C29.67 40.5134 29.572 40.2769 29.3976 40.1025C29.2232 39.928 28.9867 39.8301 28.74 39.8301C28.4934 39.8301 28.2568 39.928 28.0824 40.1025C27.908 40.2769 27.81 40.5134 27.81 40.7601V43.2001C27.8085 43.3429 27.8402 43.4841 27.9027 43.6126C27.9652 43.741 28.0567 43.8531 28.17 43.9401C28.2829 44.0287 28.4151 44.0894 28.5558 44.1172C28.6966 44.145 28.842 44.1391 28.98 44.1001C30.0961 43.8449 31.2576 43.8674 32.363 44.1655C33.4683 44.4636 34.4836 45.0283 35.32 45.8101C35.4069 45.8963 35.5099 45.9645 35.6231 46.0108C35.7364 46.0572 35.8577 46.0807 35.98 46.0801V46.0801C36.1024 46.0807 36.2237 46.0572 36.3369 46.0108C36.4502 45.9645 36.5532 45.8963 36.64 45.8101C37.4785 45.0251 38.4972 44.4586 39.6064 44.1604C40.7155 43.8622 41.881 43.8415 43 44.1001C43.1365 44.1391 43.2803 44.145 43.4194 44.1171C43.5586 44.0893 43.6891 44.0286 43.8 43.9401C43.9133 43.8531 44.0049 43.741 44.0674 43.6126C44.1299 43.4841 44.1616 43.3429 44.16 43.2001V38.3101C44.1624 38.0676 44.069 37.834 43.9 37.6601C42.6488 36.4803 41.1384 35.6104 39.49 35.1201C37.05 34.3701 33.23 34.1201 28.64 36.9401L22.05 33.5701L36.22 27.5701L50.22 33.7101L45.86 36.8401C45.6598 36.9846 45.5252 37.2028 45.4858 37.4466C45.4464 37.6904 45.5055 37.9398 45.65 38.1401C45.7946 38.3403 46.0127 38.4749 46.2565 38.5143C46.5003 38.5537 46.7498 38.4946 46.95 38.3501L52.62 34.2701C52.7547 34.1765 52.8619 34.0486 52.9305 33.8997C52.9992 33.7508 53.0268 33.5862 53.0105 33.423C52.9941 33.2598 52.9345 33.104 52.8377 32.9716C52.741 32.8392 52.6105 32.7351 52.46 32.6701" fill="white"/>
<path d="M51.48 36.3201C51.2351 36.32 51.0001 36.4167 50.826 36.5889C50.6518 36.7612 50.5527 36.9951 50.55 37.2401V43.7601C50.55 44.0067 50.648 44.2433 50.8224 44.4177C50.9968 44.5921 51.2334 44.6901 51.48 44.6901C51.7267 44.6901 51.9632 44.5921 52.1377 44.4177C52.3121 44.2433 52.41 44.0067 52.41 43.7601V37.2401C52.4101 37.1184 52.3859 36.9979 52.3391 36.8857C52.2922 36.7734 52.2236 36.6715 52.1371 36.586C52.0506 36.5004 51.948 36.4328 51.8352 36.3872C51.7224 36.3416 51.6017 36.3187 51.48 36.3201Z" fill="white"/>
</svg>
