<svg width="72" height="72" viewBox="0 0 72 72" fill="none" xmlns="http://www.w3.org/2000/svg">
<path d="M36 72C55.8823 72 72 55.8823 72 36C72 16.1177 55.8823 0 36 0C16.1177 0 0 16.1177 0 36C0 55.8823 16.1177 72 36 72Z" fill="#00A8E1"/>
<path d="M45.0001 39.09C42.4267 41.282 39.197 42.5556 35.8201 42.71C31.6901 42.71 27.6601 40.45 23.8201 35.99C24.7829 34.8676 25.8475 33.8365 27.0001 32.91C29.5757 30.7229 32.8047 29.4531 36.1801 29.3C40.3101 29.3 44.3401 31.56 48.1801 36.01C47.225 37.1398 46.1598 38.1715 45.0001 39.09V39.09ZM50.4201 35.32C46.0001 29.9 41.2301 27.14 36.2201 27.14C34.1512 27.1582 32.1083 27.6042 30.2201 28.45C28.5719 29.1883 27.0258 30.1361 25.6201 31.27C24.1082 32.4667 22.7481 33.8436 21.5701 35.37C21.425 35.5575 21.3462 35.7879 21.3462 36.025C21.3462 36.2621 21.425 36.4925 21.5701 36.68C25.9801 42.11 30.7601 44.86 35.7701 44.86C37.839 44.8418 39.8819 44.3958 41.7701 43.55C43.4183 42.8117 44.9644 41.8639 46.3701 40.73C47.882 39.5333 49.2421 38.1565 50.4201 36.63C50.5652 36.4425 50.644 36.2121 50.644 35.975C50.644 35.7379 50.5652 35.5075 50.4201 35.32" fill="white"/>
<path d="M40 34.93C39.8562 34.9246 39.7127 34.9483 39.5782 34.9997C39.4438 35.051 39.321 35.129 39.2174 35.2289C39.1138 35.3288 39.0314 35.4486 38.9751 35.5811C38.9188 35.7136 38.8899 35.856 38.89 36C38.894 36.5744 38.7272 37.137 38.411 37.6165C38.0948 38.0961 37.6433 38.4709 37.1137 38.6934C36.5842 38.916 36.0005 38.9763 35.4366 38.8667C34.8727 38.757 34.3541 38.4824 33.9466 38.0777C33.539 37.6729 33.2608 37.1562 33.1473 36.5931C33.0337 36.0301 33.09 35.4459 33.3089 34.9149C33.5278 34.3838 33.8995 33.9297 34.3768 33.6101C34.8541 33.2906 35.4156 33.12 35.99 33.12C36.1463 33.1512 36.3075 33.1475 36.4622 33.1091C36.6168 33.0707 36.7611 32.9985 36.8846 32.8978C37.008 32.797 37.1077 32.6702 37.1764 32.5264C37.245 32.3826 37.281 32.2254 37.2818 32.0661C37.2826 31.9067 37.248 31.7491 37.1807 31.6047C37.1134 31.4603 37.0149 31.3325 36.8924 31.2306C36.7699 31.1287 36.6263 31.0552 36.472 31.0153C36.3178 30.9754 36.1566 30.9702 36 31C35.0111 31 34.0444 31.2932 33.2221 31.8426C32.3999 32.392 31.759 33.1729 31.3806 34.0866C31.0022 35.0002 30.9032 36.0055 31.0961 36.9754C31.289 37.9453 31.7652 38.8363 32.4645 39.5355C33.1637 40.2348 34.0546 40.711 35.0246 40.9039C35.9945 41.0968 36.9998 40.9978 37.9134 40.6194C38.8271 40.2409 39.6079 39.6001 40.1573 38.7778C40.7068 37.9556 41 36.9889 41 36C40.9982 35.7286 40.8944 35.4679 40.7091 35.2696C40.5238 35.0713 40.2706 34.9501 40 34.93Z" fill="white"/>
</svg>
