<svg width="72" height="72" viewBox="0 0 72 72" fill="none" xmlns="http://www.w3.org/2000/svg">
<path d="M36 72C55.8823 72 72 55.8823 72 36C72 16.1177 55.8823 0 36 0C16.1177 0 0 16.1177 0 36C0 55.8823 16.1177 72 36 72Z" fill="#00A8E1"/>
<path d="M38.8099 24.9H33.1899C32.9247 24.9 32.6704 25.0054 32.4828 25.1929C32.2953 25.3804 32.1899 25.6348 32.1899 25.9V41.8C32.1899 42.0652 32.2953 42.3196 32.4828 42.5071C32.6704 42.6947 32.9247 42.8 33.1899 42.8C33.4552 42.8 33.7095 42.6947 33.897 42.5071C34.0846 42.3196 34.1899 42.0652 34.1899 41.8V26.86H37.8499V28.57C37.8499 28.8352 37.9553 29.0896 38.1428 29.2771C38.3304 29.4647 38.5847 29.57 38.8499 29.57C39.1152 29.57 39.3695 29.4647 39.5571 29.2771C39.7446 29.0896 39.8499 28.8352 39.8499 28.57V25.88C39.8499 25.6148 39.7446 25.3604 39.5571 25.1729C39.3695 24.9854 39.1152 24.88 38.8499 24.88" fill="white"/>
<path d="M48.3699 31.85H38.8099C38.5447 31.85 38.2903 31.9554 38.1028 32.1429C37.9153 32.3304 37.8099 32.5848 37.8099 32.85V45.16H24.6099V38.16H28.2799V41.79C28.2799 42.0552 28.3853 42.3096 28.5728 42.4971C28.7603 42.6847 29.0147 42.79 29.2799 42.79C29.5451 42.79 29.7995 42.6847 29.987 42.4971C30.1745 42.3096 30.2799 42.0552 30.2799 41.79V37.18C30.2799 36.9148 30.1745 36.6605 29.987 36.4729C29.7995 36.2854 29.5451 36.18 29.2799 36.18H23.6499C23.3847 36.18 23.1303 36.2854 22.9428 36.4729C22.7553 36.6605 22.6499 36.9148 22.6499 37.18V46.18C22.6499 46.4452 22.7553 46.6996 22.9428 46.8871C23.1303 47.0747 23.3847 47.18 23.6499 47.18H38.8299C39.0951 47.18 39.3495 47.0747 39.537 46.8871C39.7245 46.6996 39.8299 46.4452 39.8299 46.18V33.81H47.4199V45.14H43.7499V37.44C43.7499 37.1748 43.6445 36.9204 43.457 36.7329C43.2695 36.5454 43.0151 36.44 42.7499 36.44C42.4847 36.44 42.2303 36.5454 42.0428 36.7329C41.8553 36.9204 41.7499 37.1748 41.7499 37.44V46.12C41.7499 46.3852 41.8553 46.6396 42.0428 46.8271C42.2303 47.0147 42.4847 47.12 42.7499 47.12H48.3799C48.6451 47.12 48.8995 47.0147 49.087 46.8271C49.2745 46.6396 49.3799 46.3852 49.3799 46.12V32.83C49.3799 32.5648 49.2745 32.3104 49.087 32.1229C48.8995 31.9354 48.6451 31.83 48.3799 31.83" fill="white"/>
</svg>
