<svg xmlns="http://www.w3.org/2000/svg" viewBox="0 0 100 100"><path d="M92.69 5.05H57.46a2.28 2.28 0 00-2.28 2.27v9.11a2.28 2.28 0 002.28 2.28h14.19L42 47.27a2.28 2.28 0 000 3.22l6.43 6.44a2.27 2.27 0 003.2 0l29.65-28.57v13.69a2.28 2.28 0 002.28 2.27h9.11A2.28 2.28 0 0095 42.05V7.32a2.28 2.28 0 00-2.28-2.27zm0 51.24h-9.11a2.2 2.2 0 00-2.27 2.14v23H18.59V18.67h23a2.23 2.23 0 002.16-2.27V7.28A2.22 2.22 0 0041.59 5H7.15a2.08 2.08 0 00-1.44.59h-.07v.07a2.08 2.08 0 00-.59 1.44v85.75a2.12 2.12 0 00.59 1.43v.07h.07a2.08 2.08 0 001.44.65h85.67a2.12 2.12 0 001.45-.57l.06-.07a2 2 0 00.58-1.43V58.44a2.21 2.21 0 00-2.2-2.15z" fill="#fff"/></svg>
