<svg id="Layer_1" data-name="Layer 1" xmlns="http://www.w3.org/2000/svg" viewBox="0 0 257 174.08"><defs><style>.cls-1{fill:#122e44}</style></defs><path class="cls-1" d="M210.92 152.61l-61.24 23.21a5.24 5.24 0 0 1-3.74 0L86.71 152.4l-.3 5.11c-.07 1.22-.1 2.34-.1 3.41 0 26.13 6 42.46 18.81 51.39 11.63 8.1 27.3 8.77 43.68 8.77 30.24 0 62.5-4.65 62.5-60.16 0-1.09 0-2.18-.1-3.26zm-62.12 61.07c-32.77 0-54.42-3.57-55.07-50.55l49.49 19.55a12.61 12.61 0 0 0 9.09.06l51.56-19.54c-.69 42.14-20.79 50.48-55.07 50.48z" transform="translate(-22 -65.69)"/><path class="cls-1" d="M77.85 203.42v-64.89l70 27.63L279 116.44 146.84 65.69 22 116.47l48.44 19.14v67.22a18.55 18.55 0 1 0 7.41.59zm69.09-128.17l107.13 41.14-106.19 40.24L86 132.18l55.52-20.92-2.61-6.93-63.16 23.8-29.87-11.78zM72.71 230.88a9.66 9.66 0 1 1 9.66-9.66 9.67 9.67 0 0 1-9.66 9.66z" transform="translate(-22 -65.69)"/></svg>