<svg id="Layer_1" data-name="Layer 1" xmlns="http://www.w3.org/2000/svg" viewBox="0 0 1031.7 135"><defs><style>.cls-1{fill:#002145;}</style></defs><title>The University of British Columbia</title><path class="cls-1" d="M49.4,50.1l5.3,38.3L72,59.4,64.7,91.3,83.4,73.4,73.7,97,89.3,85.4c-7.2,19.7-13.6,30.8-39.8,39.7h0c-26.2-9-32.5-20-39.8-39.7L25.3,97,15.6,73.4,34.3,91.3,26.9,59.4l17.3,29,5.3-38.3ZM22,37.3C14.1,37.3,9.3,33,9.3,25.9V8.8h6.6V25.6c0,4.2,2.2,6.4,6.2,6.4s6.2-2.2,6.2-6.3V8.8h6.6v17c0,7.1-4.9,11.5-12.9,11.5M46.9,20h2.4c3.2,0,5-1.2,5-3.4s-1.5-3.2-4.7-3.2H46.9Zm0,12.1h2.8c2.6,0,5.6-.7,5.6-3.8s-3.1-3.9-5.7-3.9H46.9Zm2.8,4.7H40.5V8.8h9.3c6.8,0,10.6,2.7,10.6,7.4a6,6,0,0,1-3.8,5.7q5.1,1.8,5.1,6.6c0,5.4-4.3,8.3-12,8.3m30.4.5c-9.1,0-14.9-5.7-14.9-14.5S71.3,8.3,80.3,8.3a17.3,17.3,0,0,1,8.6,2h.2l-1,5.7-.4-.3a12.5,12.5,0,0,0-7.2-2.4c-5.4,0-8.6,3.5-8.6,9.3s3.3,9.3,8.7,9.3a14.6,14.6,0,0,0,7.7-2.3l.4-.3.9,5.3h-.2A19,19,0,0,1,80.1,37M0,0V73.2c0,30.8,16.7,53,49.5,61.8C82.3,126.3,99,104,99,73.2V0ZM49.5,131.1c-31-8.8-45.8-29.2-45.8-58.4V3.7H95.2v69C95.2,101.9,80.4,122.3,49.5,131.1Zm0-84.4c6.9,0,7.8,2.8,13.4,2.8s6.5-2.8,13.4-2.8,7.9,2.8,13.4,2.8V43.1c-5.5,0-6.5-2.7-13.4-2.7s-7.9,2.8-13.4,2.7-6.5-2.7-13.4-2.7-7.8,2.8-13.4,2.7-6.5-2.7-13.4-2.7-7.9,2.8-13.4,2.7v6.4c5.5,0,6.5-2.8,13.4-2.8s7.9,2.8,13.4,2.8S42.5,46.7,49.5,46.7Zm4.3,11.6c3.3.8,4.9,2.3,9,2.3s6.5-2.8,13.4-2.8,7.9,2.8,13.4,2.8V54.2c-5.5,0-6.5-2.7-13.4-2.7s-7.9,2.8-13.4,2.7-5.9-1.7-9.9-2.4ZM36.1,60.6c4.1,0,5.7-1.5,9-2.3l.9-6.6c-4,.7-5.5,2.5-9.9,2.4s-6.5-2.7-13.4-2.7-7.9,2.8-13.4,2.7v6.4c5.5,0,6.5-2.8,13.4-2.8S30.5,60.7,36.1,60.6ZM55.4,70A25,25,0,0,0,61,71.7l3.9-6.4h-2c-3.8,0-5.5-1.3-8.3-2.1Zm17.7-.8,3.1-.2c6.9,0,7.9,2.8,13.4,2.8V65.4c-5.5,0-6.5-2.7-13.4-2.7H74.6Zm-47.3,0-1.5-6.6H22.7c-6.9,0-7.9,2.8-13.4,2.7v6.5c5.5,0,6.5-2.8,13.4-2.8Zm12.1,2.5A24.9,24.9,0,0,0,43.5,70l.9-6.7c-2.9.8-4.5,2.1-8.3,2.1h-2ZM158.8,36.8H154V16.4h-7.6V12.1h19.8l.6,4.3h-8Zm37.5,0h-4.8V26.1H180.8V36.8H176V12.1h4.8v9.7h10.7V12.1h4.8Zm29.7,0H210.1V12.1h15.6v4.3H214.9v5.4h8.6l.7,4.3h-9.3v6.4H226v4.3Zm37.3.5c-6.3,0-10.1-3.8-10.1-10.1V12.1H258V26.9c0,4,1.9,6.2,5.3,6.2s5.4-2.1,5.4-6.1V12h4.8V26.9c0,6.5-3.8,10.3-10.3,10.3Zm43.7-.5h-4.2L291,19.5V36.8h-4.4V12.1h4.7l11.2,16.6V12.1h4.4V36.8Zm18.6,0h-4.9V12.1h4.8V36.8Zm23.4.4h-4.3l-9.5-24.5,4.8-1.1,7.1,19.3L354,12h4.9l-9.8,25.1Zm34.9-.4h-16V12.1h15.6v4.3H372.8v5.4h8.6l.7,4.3h-9.3v6.4h11.1v4.3Zm26.2.3L403,27.4h-2.3v9.4h-4.8V12.1h7.8c5.9,0,9.4,2.9,9.4,7.7a7,7,0,0,1-4.9,7l6.9,9.2Zm-9.3-13.5h2.9c3,0,4.6-1.3,4.6-3.8s-2.5-3.5-4.6-3.5h-2.9Zm31.9,13.5a22.2,22.2,0,0,1-8.4-1.8h-.2l.7-4.4.3.2a18.4,18.4,0,0,0,7.8,2.1c2.7,0,4.5-1.2,4.5-3s-1.2-2.6-4.6-3.7c-5.2-1.8-7.8-3.4-7.8-7.4s3.4-7.2,8.4-7.2a17.9,17.9,0,0,1,7.1,1.5h.2l-.7,4.5-.3-.2a13.9,13.9,0,0,0-6.4-1.8c-2.2,0-3.8,1.1-3.8,2.6s1.1,2.3,5,3.6,7.5,3.4,7.5,7.5-3.7,7.6-9.1,7.6Zm26-.3h-4.8V12.1h4.8Zm21.8,0h-4.8V16.4h-7.6V12.1h19.8l.6,4.3h-8Zm24.9,0h-4.8V27.2l-8.9-14.6,4.9-1.1L503,22.8,509.2,12h5.3l-9.2,15.1v9.7Zm40.2.5c-5.9,0-11.9-4.4-11.9-12.8s6-12.9,11.9-12.9,11.9,4.4,11.9,12.8S551.5,37.3,545.6,37.3Zm0-21.5c-4.2,0-7,3.5-7,8.6s3,8.8,7,8.8,7-3.5,7-8.7S549.7,15.8,545.6,15.8Zm27.8,21h-4.8V12.1h15.1v4.3H573.4v5.9h8.2l.7,4.3h-8.9Zm44.7,0H610V12.1h8.1c5.2,0,8.3,2.4,8.3,6.4a5.5,5.5,0,0,1-3.1,5.2,5.7,5.7,0,0,1,4.2,5.7C627.5,34.2,624.2,36.8,618.1,36.8Zm-3.5-4h3.6q4.8,0,4.8-3.3c0-2.2-1.6-3.6-4.7-3.6h-3.6v6.9Zm0-10.9h3.1c2.8,0,4.1-1,4.1-3.1s-.4-2.7-4-2.7h-3.3v5.8Zm38.7,15.2-7.1-9.7h-2.3v9.4h-4.8V12.1h7.8c5.9,0,9.4,2.9,9.4,7.7a7,7,0,0,1-4.9,7l6.9,9.2-5,1.1ZM644,23.6h2.9c3,0,4.6-1.3,4.6-3.8s-2.5-3.5-4.6-3.5H644Zm29.7,13.2h-4.9V12.1h4.9Zm21.8,0h-4.8V16.4h-7.6V12.1h19.8l.6,4.3h-8Zm21.7,0h-4.8V12.1h4.8Zm20,.3a22.2,22.2,0,0,1-8.4-1.8h-.2l.7-4.4.3.2a18.5,18.5,0,0,0,7.8,2.1c2.7,0,4.5-1.2,4.5-3s-1.2-2.6-4.6-3.7c-5.2-1.8-7.8-3.4-7.8-7.4s3.5-7.2,8.4-7.2a17.9,17.9,0,0,1,7.1,1.5h.2l-.7,4.5-.3-.2a13.9,13.9,0,0,0-6.5-1.9c-2.1,0-3.8,1.1-3.8,2.6s1.1,2.3,5,3.6,7.5,3.4,7.5,7.5-3.7,7.6-9.1,7.6Zm40-.3h-4.8V26.1H761.7V36.8h-4.8V12.1h4.8v9.7h10.6V12.1h4.8V36.8Zm37.1.5c-7.1,0-11.9-5.1-11.9-12.8s4.8-12.9,11.9-12.9a12.6,12.6,0,0,1,7.1,1.9h.1l-.8,4.5-.3-.2a9.6,9.6,0,0,0-6-2.2c-4.5,0-7.1,3.3-7.1,8.8s2.8,8.7,7.2,8.7a11.3,11.3,0,0,0,6.4-2.2l.3-.2.7,4.2h-.1a13.7,13.7,0,0,1-7.5,2.2Zm28.5,0c-5.9,0-11.9-4.4-11.9-12.8s6-12.9,11.9-12.9,11.9,4.4,11.9,12.8S848.7,37.3,842.8,37.3Zm0-21.5c-4.2,0-7,3.5-7,8.6s3,8.8,7,8.8,7-3.5,7-8.7S846.9,15.8,842.8,15.8Zm37.1,21H865.3V12.1h4.8V32.6h9.2l.7,4.2Zm18.6.5c-6.3,0-10.1-3.8-10.1-10.1V12.1h4.8V26.9c0,4,1.9,6.2,5.3,6.2s5.4-2.1,5.4-6.1V12h4.9V26.9c0,6.5-3.9,10.3-10.3,10.3Zm39-.4h-4.6l-6.6-18.8-1.4,18.7h-4.4l2-24.7H929l6.5,19,6.6-19h6.4l2,24.7h-4.8l-1.4-18.7-6.6,18.8Zm34-.1h-8.1V12.1h8.1c5.2,0,8.3,2.4,8.3,6.4a5.5,5.5,0,0,1-3.1,5.2,5.7,5.7,0,0,1,4.2,5.7C980.9,34.2,977.6,36.8,971.5,36.8Zm-3.5-4h3.6q4.8,0,4.8-3.3c0-2.2-1.6-3.6-4.7-3.6h-3.6v6.9Zm0-10.9h3.1c2.8,0,4.1-1,4.1-3.1s-.4-2.7-4-2.7h-3.3v5.8Zm29.8,14.9h-4.9V12.1h4.9Zm29.2.5-2.4-6.5h-10.4l-2.3,6.1h-4.7l9.8-25h5.1l9.6,24.4-4.8,1.1Zm-11.2-10.8h7.2l-3.6-9.7Z"/></svg>
