<svg id="Layer_1" data-name="Layer 1" xmlns="http://www.w3.org/2000/svg" viewBox="0 0 300 100"><defs><style>.cls-1{fill:#be0000;}.cls-2{fill:#060525;}</style></defs><title>logo-sbqmi-2</title><path class="cls-1" d="M79.44,37.5l.54-.75a2.85,2.85,0,0,0,2,.79A1.67,1.67,0,0,0,83.84,36c0-1.09-1-1.54-2.05-2.05s-2.08-1.12-2.08-2.54a2.37,2.37,0,0,1,2.6-2.28,3.69,3.69,0,0,1,2.35.71l-.51.78A2.93,2.93,0,0,0,82.29,30a1.41,1.41,0,0,0-1.56,1.35c0,.89.72,1.3,1.61,1.72,1.18.56,2.55,1.17,2.55,2.91,0,1.41-1.19,2.4-2.93,2.4a3.67,3.67,0,0,1-2.54-.91m7.84-.79a1.49,1.49,0,0,0,1.61,1.7A2.47,2.47,0,0,0,90.24,38l-.36-.74a1.63,1.63,0,0,1-.87.28c-.56,0-.75-.31-.75-1v-4h1.62v-.78H88.25V30h-1v1.84H86.21v.78h1.06v4.12m4.84-2.48c.17-1,.74-1.73,1.77-1.73s1.53.82,1.56,1.73ZM91,35c0,1.91,1,3.42,3,3.42a3.84,3.84,0,0,0,2.21-.66l-.4-.76a3.23,3.23,0,0,1-1.79.58c-1.45,0-2-1.2-2-2.56h4.36c0-.16,0-.31,0-.46,0-1.76-.94-2.9-2.54-2.9S91,33.1,91,35m8.19,3.26h.89l1.61-5h0l1.6,5h.89l1.93-6.44h-1l-1.38,4.89h0l-1.52-4.89h-1l-1.52,4.87h0l-1.37-4.87H97.28Zm11.53-1.61a2.13,2.13,0,0,1-1.72.93.91.91,0,0,1-1-.91c0-1.09,1-1.46,2.39-1.46h.28v1.45m-3.72,0a1.7,1.7,0,0,0,1.84,1.73,2.52,2.52,0,0,0,1.93-.94,6.85,6.85,0,0,0,.09.78h1a6.19,6.19,0,0,1-.15-1.46v-3a1.92,1.92,0,0,0-2.2-2.13,3.17,3.17,0,0,0-2.27.89l.52.68a2.39,2.39,0,0,1,1.68-.7c.89,0,1.29.39,1.29,1.34v.61h-.28c-1.56,0-3.44.51-3.44,2.21m6.84,1.57h1V33.93c.08-.2.62-1.32,1.58-1.32a1.11,1.11,0,0,1,.56.11l.24-.94a1.42,1.42,0,0,0-.67-.14,2.12,2.12,0,0,0-1.72,1.17v-1h-1Zm5.06-1.54a1.49,1.49,0,0,0,1.61,1.7,2.47,2.47,0,0,0,1.36-.39l-.36-.74a1.64,1.64,0,0,1-.87.28c-.56,0-.75-.31-.75-1v-4h1.62v-.78H119.9V30h-1v1.84h-1.06v.78h1.06v4.12m8.62.67V34h1.34c1.64,0,2.21.69,2.21,1.76s-.71,1.61-2.3,1.61Zm0-4.23v-3h1.25c1.26,0,1.93.43,1.93,1.42s-.59,1.54-2,1.54Zm-1,5.1h2.32c2,0,3.36-.68,3.36-2.51a2.22,2.22,0,0,0-2-2.2v0a1.94,1.94,0,0,0,1.6-2c0-1.61-1.26-2.23-2.93-2.23H126.5Zm7.52,0h1V28.59h-1Zm3.13-1.85a1.78,1.78,0,0,0,1.91,2,2.61,2.61,0,0,0,2.09-1.11c0,.32.07.79.09,1h1a7.59,7.59,0,0,1-.12-1.36V31.81h-1v4.53a2.63,2.63,0,0,1-1.85,1.18c-.87,0-1.15-.51-1.15-1.31v-4.4h-1V36.4m6.62,1.41a3.59,3.59,0,0,0,2,.62c1.41,0,2.3-.74,2.3-1.91s-1-1.54-2-2c-.71-.29-1.23-.55-1.23-1.15s.39-.89,1.07-.89a2.34,2.34,0,0,1,1.44.48l.48-.71a3,3,0,0,0-1.91-.62,1.82,1.82,0,0,0-2,1.77c0,1.1.76,1.56,1.77,2s1.42.66,1.42,1.25-.51.93-1.31.93a2.77,2.77,0,0,1-1.6-.52l-.43.75m5.48,0a3.59,3.59,0,0,0,2,.62c1.41,0,2.3-.74,2.3-1.91s-1-1.54-2-2c-.71-.29-1.23-.55-1.23-1.15s.39-.89,1.07-.89a2.34,2.34,0,0,1,1.44.48l.48-.71a3,3,0,0,0-1.91-.62,1.82,1.82,0,0,0-2,1.77c0,1.1.77,1.56,1.77,2s1.42.66,1.42,1.25-.51.93-1.31.93a2.77,2.77,0,0,1-1.6-.52l-.43.75M159.66,35c0,1.38-.63,2.52-2,2.52s-1.95-1.17-1.95-2.55.54-2.52,1.88-2.52,2,1.17,2,2.55m-5,0c0,1.5.81,3.37,3,3.37a3.12,3.12,0,0,0,3-3.39,3.13,3.13,0,0,0-3.07-3.37c-2.17,0-2.94,1.89-2.94,3.4m7.65,3.21h1V33.72a2.53,2.53,0,0,1,1.87-1.18c.86,0,1.14.51,1.14,1.32v4.4h1V33.66a1.78,1.78,0,0,0-1.89-2,2.64,2.64,0,0,0-2.09,1.09v-.93h-1Z"/><path class="cls-2" d="M89.14,50.92c0-2.53-1.31-4.73-4-4.73s-4.08,2.14-4.08,4.68,1.34,4.75,4,4.75,4.06-2.18,4.06-4.7m-4.81,6.32a6,6,0,0,1-5.5-6.32c0-3.39,2.24-6.45,6.24-6.45a6.09,6.09,0,0,1,6.28,6.39,6.15,6.15,0,0,1-4.62,6.28,3.12,3.12,0,0,0,2.74,1.51A2.5,2.5,0,0,0,91,58.13l.71,1.44a3.64,3.64,0,0,1-2.27.69c-1.81,0-3.28-.69-5.07-3m9.88-2.78V48.09h2v6c0,1,.35,1.58,1.38,1.58a3.13,3.13,0,0,0,2.18-1.36V48.09h2v6.73a10.6,10.6,0,0,0,.22,2.29h-2a8.73,8.73,0,0,1-.17-1.26,3.59,3.59,0,0,1-2.91,1.49c-2,0-2.68-1.27-2.68-2.87m15.29.34V53h-.35c-1.66,0-2.83.47-2.83,1.73a1.08,1.08,0,0,0,1.19,1.08,2.51,2.51,0,0,0,2-1m-5.16,0c0-2.35,2.52-3.15,4.81-3.15h.35V51c0-1.08-.47-1.55-1.62-1.55a3.45,3.45,0,0,0-2.31.91l-.93-1.27a5,5,0,0,1,3.45-1.27c2.24,0,3.39,1,3.39,3.19v3.67a11.43,11.43,0,0,0,.22,2.38h-2a8.61,8.61,0,0,1-.15-1A3.32,3.32,0,0,1,107,57.33a2.44,2.44,0,0,1-2.65-2.5m10.27-6.75h2V49.3a3.68,3.68,0,0,1,2.89-1.43c1.94,0,2.68,1.27,2.68,2.87V57.1h-2v-6c0-1-.35-1.58-1.38-1.58a3,3,0,0,0-2.18,1.36V57.1h-2ZM125.8,54.7V49.59h-1.45V48.09h1.45V45.49h2v2.59H130v1.51h-2.18v4.79c0,.89.24,1.31,1,1.31a2.35,2.35,0,0,0,1.19-.37l.56,1.49a4.25,4.25,0,0,1-2.11.52,2.31,2.31,0,0,1-2.59-2.63m6.64-.24V48.09h2v6c0,1,.35,1.58,1.38,1.58A3.14,3.14,0,0,0,138,54.27V48.09h2v6.73a10.6,10.6,0,0,0,.22,2.29h-2a8.71,8.71,0,0,1-.17-1.26,3.59,3.59,0,0,1-2.91,1.49c-2,0-2.68-1.27-2.68-2.87m10.73-6.37h2v1.19a3.43,3.43,0,0,1,2.74-1.41,2.23,2.23,0,0,1,2.31,1.47,3.71,3.71,0,0,1,2.89-1.47c1.86,0,2.55,1.25,2.55,2.87V57.1h-2v-6c0-1-.28-1.58-1.25-1.58a2.79,2.79,0,0,0-2,1.19V57.1h-2v-6c0-1-.35-1.58-1.23-1.58-1.08,0-1.83,1.1-2,1.34v6.2h-2Zm20.77-3.39h2l2.76,8c.32,1,.54,1.7.69,2.2h0c.15-.49.37-1.25.71-2.2l2.8-8h2l1.7,12.41h-2.14l-.91-7.17c-.11-.9-.19-1.47-.21-1.77h0c-.09.33-.26.93-.54,1.75l-2.48,7.19h-2l-2.52-7.19c-.26-.8-.45-1.42-.56-1.75h0c0,.35-.07,1-.17,1.81l-.88,7.14h-1.92Zm20.28,10.1V53h-.36c-1.66,0-2.83.47-2.83,1.73a1.08,1.08,0,0,0,1.19,1.08,2.51,2.51,0,0,0,2-1m-5.16,0c0-2.35,2.52-3.15,4.81-3.15h.36V51c0-1.08-.47-1.55-1.62-1.55a3.45,3.45,0,0,0-2.31.91l-.93-1.27a5,5,0,0,1,3.45-1.27c2.24,0,3.39,1,3.39,3.19v3.67a11.44,11.44,0,0,0,.22,2.38h-2a8.42,8.42,0,0,1-.15-1,3.32,3.32,0,0,1-2.61,1.25,2.44,2.44,0,0,1-2.65-2.5m10.75-.13V49.59h-1.45V48.09h1.45V45.49h2v2.59H194v1.51h-2.18v4.79c0,.89.24,1.31,1,1.31a2.37,2.37,0,0,0,1.19-.37l.56,1.49a4.25,4.25,0,0,1-2.11.52,2.31,2.31,0,0,1-2.59-2.63m7.64,0V49.59H196V48.09h1.45V45.49h2v2.59h2.18v1.51h-2.18v4.79c0,.89.24,1.31,1,1.31a2.35,2.35,0,0,0,1.19-.37l.56,1.49a4.25,4.25,0,0,1-2.11.52,2.31,2.31,0,0,1-2.59-2.63m12.11-3.22c0-1.14-.52-2.11-1.85-2.11s-1.88.84-2.1,2.11Zm-6.08,1.06c0-2.76,1.81-4.68,4.27-4.68s3.77,1.6,3.77,4.25c0,.24,0,.52,0,.78h-5.89c.09,1.6.8,2.89,2.55,2.89a4.55,4.55,0,0,0,2.4-.71l.69,1.36a5.73,5.73,0,0,1-3.24.89c-2.94,0-4.51-2-4.51-4.79m10.75-4.46h2v1.31a2.81,2.81,0,0,1,2.33-1.53,2.19,2.19,0,0,1,1.1.22l-.48,1.77a1.64,1.64,0,0,0-.88-.19c-1.21,0-1.9,1.25-2.07,1.58V57.1h-2Z"/><path class="cls-1" d="M225.7,45h2.11V57.42H225.7Zm5.74,12.41h2V51.23a3,3,0,0,1,2.18-1.36c1,0,1.38.58,1.38,1.58v6h2V51c0-1.6-.74-2.87-2.68-2.87a3.68,3.68,0,0,0-2.89,1.43V48.4h-2Zm10-.63a5.24,5.24,0,0,0,3,.88c2.11,0,3.43-1,3.43-2.8,0-1.53-1.18-2.18-2.63-2.78-1-.41-1.79-.65-1.79-1.38s.45-1,1.36-1a3.52,3.52,0,0,1,2,.62l.78-1.38a5,5,0,0,0-2.8-.78c-1.92,0-3.13,1.08-3.13,2.65s.89,2.1,2.22,2.7,2.14.84,2.14,1.55-.62,1-1.64,1a4,4,0,0,1-2.22-.75l-.73,1.42M251.12,55a2.31,2.31,0,0,0,2.59,2.63,4.28,4.28,0,0,0,2.11-.52l-.56-1.49a2.35,2.35,0,0,1-1.19.37c-.73,0-1-.41-1-1.31V49.91h2.18V48.4H253.1V45.81h-2V48.4h-1.45v1.51h1.45V55m7,2.4h2v-9h-2Zm-.3-11.69a1.3,1.3,0,1,0,1.29-1.27,1.27,1.27,0,0,0-1.29,1.27M263.88,55a2.31,2.31,0,0,0,2.59,2.63,4.28,4.28,0,0,0,2.11-.52L268,55.63a2.34,2.34,0,0,1-1.19.37c-.73,0-1-.41-1-1.31V49.91H268V48.4h-2.18V45.81h-2V48.4h-1.45v1.51h1.45V55m6.64-.24c0,1.6.73,2.87,2.68,2.87a3.59,3.59,0,0,0,2.91-1.49,8.74,8.74,0,0,0,.17,1.27h2a10.61,10.61,0,0,1-.22-2.29V48.4h-2v6.19A3.14,3.14,0,0,1,273.88,56c-1,0-1.38-.58-1.38-1.58v-6h-2v6.37m11.25.24a2.31,2.31,0,0,0,2.59,2.63,4.27,4.27,0,0,0,2.1-.52l-.56-1.49a2.34,2.34,0,0,1-1.19.37c-.73,0-1-.41-1-1.31V49.91h2.18V48.4h-2.18V45.81h-2V48.4h-1.45v1.51h1.45V55m8.16-3.22c.22-1.27.89-2.11,2.1-2.11s1.81,1,1.84,2.11Zm-2.13,1.06c0,2.78,1.57,4.79,4.51,4.79a5.75,5.75,0,0,0,3.24-.89l-.69-1.36a4.56,4.56,0,0,1-2.4.71c-1.75,0-2.46-1.29-2.55-2.89h5.89c0-.26,0-.54,0-.78,0-2.64-1.34-4.25-3.77-4.25s-4.27,1.92-4.27,4.68"/><path class="cls-2" d="M31.93,31.2a6,6,0,0,0,.42.79,7.65,7.65,0,0,0,.55.76c.2.25.43.5.66.74l.23.05.67.17,1.23.33,1.88.54.54.16.5.15.47.14.43.13.2.07.33.1.3.1.27.09.24.08.57.19-.2-.13-.2-.13-.2-.13-.2-.13c-.65-.44-1.28-.86-1.88-1.28s-1.14-.83-1.63-1.25a9.12,9.12,0,0,1-1.24-1.26,4.12,4.12,0,0,1-.71-1.29,2.42,2.42,0,0,1,0-1.55,2.83,2.83,0,0,1,.91-1.23,4.8,4.8,0,0,1,1.57-.82,7.56,7.56,0,0,1,2.05-.34,9.71,9.71,0,0,1,4.22.83,7.53,7.53,0,0,1,1.67,1,4.68,4.68,0,0,1,1.15,1.34,3.32,3.32,0,0,1,.39,1.16,4.14,4.14,0,0,1,0,1.21,8.36,8.36,0,0,1-.34,1.3c-.15.45-.33.92-.52,1.41l-.08.2-.08.2-.08.2-.08.2-.16.43-.16.43-.16.43-.16.43,1.66.54.15.05.15,0,.14,0,.14,0,1.22.4.13-.44L49,37.3l.13-.45.13-.45.06-.2.06-.2.06-.2.06-.2.07-.24.07-.24.07-.23.07-.23c.13-.47.25-.93.33-1.39a7.1,7.1,0,0,0,.12-1.35,5.18,5.18,0,0,0-.19-1.33,5.37,5.37,0,0,0-.58-1.33,7.53,7.53,0,0,0-1.8-2,11.66,11.66,0,0,0-2.5-1.49A14.82,14.82,0,0,0,39,24.54a11.92,11.92,0,0,0-3.09.44,7.84,7.84,0,0,0-2.46,1.16A4.66,4.66,0,0,0,31.86,28a3.67,3.67,0,0,0-.2,2.41,5,5,0,0,0,.27.81"/><path class="cls-1" d="M69.07,40.8a8.52,8.52,0,0,0-1.15-2.55L67.74,38l-.19-.26-.2-.26-.21-.26L66.94,37l-.22-.25-.23-.24-.23-.24a15.07,15.07,0,0,0-2.47-2,16,16,0,0,0-2.74-1.41A14.31,14.31,0,0,0,58.2,32a10.92,10.92,0,0,0-2.83-.13,8.63,8.63,0,0,0-.9.13,7.75,7.75,0,0,0-1.59.49c-.25.11-.48.22-.71.35,0,0,0,0,0,.13s0,.21,0,.38,0,.41-.09.72-.1.68-.18,1.15l-.06.34c0,.11,0,.22-.06.32l-.06.3-.06.28,0,.13-.05.22,0,.21,0,.18,0,.16-.1.4.12-.13.12-.13.12-.13.12-.13c.39-.42.77-.82,1.15-1.2a10.41,10.41,0,0,1,1.15-1,6.08,6.08,0,0,1,1.25-.72A5.39,5.39,0,0,1,56.81,34a7,7,0,0,1,2.11.1,9.65,9.65,0,0,1,2.14.68,10.47,10.47,0,0,1,2,1.19,9,9,0,0,1,1.67,1.63,6.06,6.06,0,0,1,1,1.85,3.6,3.6,0,0,1,.14,1.76,2.68,2.68,0,0,1-.78,1.46,3.63,3.63,0,0,1-1.75.89,6.8,6.8,0,0,1-1.88.12,13.87,13.87,0,0,1-2.14-.32c-.75-.17-1.52-.38-2.32-.62s-1.61-.51-2.43-.78l-.33-.11-.33-.11-.33-.11-.33-.11-.69-.22-.68-.22-.66-.21-.64-.21-.41-.13-.4-.13-.38-.12-.36-.12-1-.32-2.9-1-.12,0-.13,0-.14,0-.16-.05-1.06-.35L42.36,38,41,37.52l-1.41-.46-.32-.1-.32-.1-.32-.11-.32-.1-.38-.13-.38-.13-.39-.13-.38-.12c-.8-.26-1.6-.5-2.41-.72s-1.64-.41-2.49-.56a21.55,21.55,0,0,0-2.63-.31,19.86,19.86,0,0,0-2.86.05,19.26,19.26,0,0,0-4.43.95,18.29,18.29,0,0,0-4.07,2,15.49,15.49,0,0,0-3.4,3,11.52,11.52,0,0,0-2.21,3.89c0,.15-.09.3-.13.45s-.08.3-.11.46-.06.31-.09.47,0,.31-.06.47,0,.32,0,.47,0,.31,0,.47,0,.31,0,.47,0,.31,0,.47a8.36,8.36,0,0,0,1.7,4.18,10.87,10.87,0,0,0,3.9,3.11A15.32,15.32,0,0,0,23,56.83a18.8,18.8,0,0,0,6.19-.58,20.68,20.68,0,0,0,2-.64c.64-.24,1.25-.51,1.83-.79s1.13-.59,1.66-.91,1-.65,1.5-1c0,0,0-.1.08-.29s.14-.46.26-.85.29-.88.52-1.5.48-1.33.81-2.18l.23-.59.22-.54.2-.49.18-.45.09-.21.15-.34.13-.3.12-.27.11-.23.24-.56-.2.19-.2.19-.2.19-.2.19c-.69.64-1.39,1.3-2.11,1.93s-1.52,1.29-2.33,1.87a18.33,18.33,0,0,1-2.66,1.6,13.91,13.91,0,0,1-3.06,1.09,11.94,11.94,0,0,1-4.12.21,9.48,9.48,0,0,1-3.53-1.15,6.63,6.63,0,0,1-2.36-2.23,5.29,5.29,0,0,1-.79-2.92,6.16,6.16,0,0,1,.85-2.93,8.67,8.67,0,0,1,2.06-2.38,11.22,11.22,0,0,1,2.82-1.66,12.42,12.42,0,0,1,3.28-.84,13.57,13.57,0,0,1,2.56,0,18.38,18.38,0,0,1,2.49.38c.83.18,1.66.41,2.5.67s1.69.54,2.55.82l.35.12.35.11.35.11.35.11L39,40l.71.23.69.23.67.22.43.14.42.14.4.13.39.13.89.3,3.19,1.06.14,0,.15,0,.15,0,.16.05,1.13.37,1.31.43,1.43.47,1.5.49.34.11.34.11.34.11.34.11.41.14.41.14.41.13.41.14c.85.27,1.7.53,2.56.76a24.82,24.82,0,0,0,2.53.55,14.65,14.65,0,0,0,2.43.2,9.19,9.19,0,0,0,2.24-.28A5.45,5.45,0,0,0,68,45.36a4.17,4.17,0,0,0,1.15-2.1,5.39,5.39,0,0,0-.07-2.46"/><path class="cls-2" d="M64.26,53.8c-.3-.5-.62-1-1-1.44s-.67-.88-1-1.29-.7-.79-1.07-1.16-.73-.72-1.11-1.06l-.25,0-.74-.17-1.37-.36-2.14-.6L55,47.48l-.57-.17-.53-.16L53.4,47l-.23-.08-.39-.12-.35-.11-.31-.1-.27-.09-.66-.22.25.17.24.17.25.17.25.17c.83.57,1.65,1.15,2.45,1.73s1.59,1.2,2.33,1.84a20.07,20.07,0,0,1,2.07,2A13.88,13.88,0,0,1,60.71,55,11.71,11.71,0,0,1,62,58.53a10.16,10.16,0,0,1,0,3.64,8.25,8.25,0,0,1-1.38,3.29,7.08,7.08,0,0,1-2.85,2.35,7.62,7.62,0,0,1-3.87.62,9.69,9.69,0,0,1-3.93-1.29,11.63,11.63,0,0,1-3.29-2.86,12,12,0,0,1-2.07-3.9A12.35,12.35,0,0,1,44,57.21a16,16,0,0,1,.18-3,26.55,26.55,0,0,1,.61-2.84c.24-.9.51-1.79.77-2.66l.1-.34.1-.34.1-.34.1-.33.2-.68.19-.65.18-.62.17-.58-1.91-.63-.17-.05-.17-.05L44.34,44,44.18,44l-1.4-.46-.22.57-.23.61-.24.64-.25.66-.12.31-.12.32-.13.32-.13.33-.15.4-.16.4-.16.41-.16.42c-.33.88-.65,1.8-.93,2.75a24.61,24.61,0,0,0-.71,3.09,19.46,19.46,0,0,0-.25,3.48,18.36,18.36,0,0,0,.51,3.93,18.84,18.84,0,0,0,3,6.56,18.23,18.23,0,0,0,5.34,5,14.84,14.84,0,0,0,6.59,2.17,11.59,11.59,0,0,0,6.36-1.31A11.25,11.25,0,0,0,65,70.3a13.64,13.64,0,0,0,1.79-5.52,16.73,16.73,0,0,0-.39-5.71,18.68,18.68,0,0,0-2.18-5.27"/></svg>