<svg id="Layer_1" data-name="Layer 1" xmlns="http://www.w3.org/2000/svg" viewBox="0 0 300 100"><defs><style>.cls-1{fill:#002145;}</style></defs><title>logo-ubc-short</title><path class="cls-1" d="M38.7,43l2.2,15.6L48,46.8l-3,13,7.6-7.3-4,9.6L55,57.3c-3,8-5.5,12.6-16.2,16.2C28,69.9,25.4,65.4,22.5,57.4l6.4,4.7-4.1-9.6,7.7,7.3-3-13,7,11.8ZM27.5,37.7c-3.2,0-5.2-1.7-5.2-4.7V26H25v6.9a2.3,2.3,0,0,0,1.8,2.7h.7A2.3,2.3,0,0,0,30,33V26.1h2.7V33c0,2.9-2,4.7-5.3,4.7m11.4-.2H35V26.1h3.8c2.8,0,4.3,1.1,4.3,3a2.5,2.5,0,0,1-1.6,2.3,2.7,2.7,0,0,1,2.1,2.7c0,2.2-1.7,3.4-4.9,3.4m-1.2-1.9h1.2c1,0,2.3-.3,2.3-1.5s-1.2-1.6-2.2-1.6H37.6Zm0-4.9h1c1.3,0,2-.5,2-1.4S39.9,28,38.6,28h-1Zm13.7,7c-3.7,0-6.1-2.3-6.1-5.9s2.5-5.9,6.2-5.9a7.1,7.1,0,0,1,3.5.8h.1l-.4,2.4h-.2a5.1,5.1,0,0,0-2.9-1c-2.2,0-3.5,1.4-3.5,3.8s1.4,3.8,3.6,3.8a6,6,0,0,0,3.1-1h.2l.4,2.2h-.1a7.7,7.7,0,0,1-3.8,1M38.7,76C26.1,72.4,20,64,20,52.2V24H57.4V52.2c0,11.9-6,20.2-18.7,23.8M18.5,22.5V52.4c0,12.5,6.8,21.6,20.2,25.2C52.1,74,58.9,64.8,58.9,52.3V22.5ZM38.7,41.6c2.8,0,3.2,1.1,5.5,1.1s2.6-1.1,5.5-1.1,3.2,1.1,5.5,1.1V40.1c-2.3,0-2.7-1.1-5.5-1.1s-3.2,1.1-5.5,1.1S41.5,39,38.7,39s-3.2,1.1-5.5,1.1S30.6,39,27.7,39s-3.2,1.1-5.5,1.1v2.6c2.3,0,2.6-1.1,5.5-1.1s3.2,1.1,5.5,1.1,2.7-1.1,5.5-1.1m1.8,4.7c1.4.3,2,.9,3.7.9S46.8,46,49.7,46s3.2,1.1,5.5,1.1V44.6c-2.3,0-2.6-1.1-5.5-1.1s-3.2,1.1-5.5,1.1-2.4-.7-4.1-1Zm-7.3,1c1.7,0,2.3-.6,3.7-.9l.4-2.7c-1.6.3-2.2,1-4.1,1s-2.6-1.2-5.4-1.2-3.2,1.1-5.5,1.1v2.6c2.3,0,2.6-1.1,5.5-1.1s3.2,1.1,5.5,1.1m7.8,3.9,2.3.7L45,49.2h-.8a9.7,9.7,0,0,1-3.4-.9Zm7.3-.3h1.3c2.8,0,3.2,1.1,5.5,1.1V49.2c-2.3,0-2.6-1.1-5.5-1.1H49Zm-19.3,0-.6-2.7h-.7c-2.8,0-3.2,1.1-5.5,1.1v2.6c2.3,0,2.7-1.1,5.5-1.1h1.3M34,51.8l2.3-.7.4-2.7a9.7,9.7,0,0,1-3.4.9h-.8ZM83.3,37.5H81.4V29.2H78.3V27.4h8l.3,1.8H83.3Zm15.3,0h-2V33.2H92.3v4.3h-2V27.4h2v4h4.3v-4h2Zm12.2,0h-6.5V27.4h6.3v1.8h-4.4v2.2h3.5l.3,1.8h-3.8v2.6h4.6Zm15.2.2a3.8,3.8,0,0,1-4.1-4.1V27.4h2v6.1c0,1.6.8,2.5,2.2,2.5s2.2-.9,2.2-2.5V27.4h2v6.1a3.9,3.9,0,0,1-3.6,4.2h-.6m17.7-.2h-1.7l-4.8-7v7h-1.8V27.4h1.9l4.6,6.8V27.4h1.8Zm5.6-10.1h2V37.5h-2ZM161,37.7h-1.8l-3.9-10,2-.5,2.9,7.9,2.8-7.7h2Zm14.2-.2h-6.5V27.4h6.4v1.8h-4.4v2.2h3.5l.2,1.8h-3.7v2.6h4.5Zm6.9-5.4h1.2c1.2,0,1.9-.5,1.9-1.5s-1-1.4-1.9-1.4h-1.2Zm3.8,5.5-2.9-4h-.9v3.9h-2V27.4h3.2c2.4,0,3.8,1.2,3.8,3.1a2.9,2.9,0,0,1-2,2.9l2.8,3.8Zm9.2.1a9,9,0,0,1-3.4-.7h-.1l.3-1.8h.1a7.5,7.5,0,0,0,3.2.9c1.1,0,1.8-.5,1.8-1.2s-.5-1-1.9-1.5-3.2-1.4-3.2-3a3.1,3.1,0,0,1,3.3-2.9h.1a7.3,7.3,0,0,1,2.9.6h.1l-.3,1.8h-.1a5.7,5.7,0,0,0-2.6-.7c-.9,0-1.5.5-1.5,1.1s.5.9,2,1.5,3.1,1.4,3.1,3.1-1.5,3.1-3.7,3.1m8.6-10.6h2V37.5h-2Zm10.8,10.1h-1.9V29.2h-3.1V27.4h8l.3,1.8h-3.3Zm10.2,0h-2V33.6l-3.6-5.9,2-.5,2.6,4.6,2.6-4.4h2.2l-3.8,6.2ZM83.1,49.1c-1.7,0-2.9,1.4-2.9,3.5s1.2,3.6,2.9,3.6,2.8-1.4,2.8-3.6S84.7,49,83.1,49m0,8.8a4.9,4.9,0,0,1-4.9-4.9h0v-.3a4.9,4.9,0,1,1,9.7,0,4.9,4.9,0,0,1-4.5,5.3h-.3m11.4-.2h-2V47.6h6.2v1.8H94.5v2.4h3.3l.3,1.7H94.5Zm16.8-6h1.3c1.1,0,1.7-.4,1.7-1.2s-.2-1.1-1.6-1.1h-1.4Zm0,4.4h1.5c1.3,0,1.9-.4,1.9-1.4s-.6-1.5-1.9-1.5h-1.5Zm1.4,1.6h-3.3V47.6h3.3c2.1,0,3.4,1,3.4,2.6a2.3,2.3,0,0,1-1.3,2.1,2.3,2.3,0,0,1,1.7,2.3c0,1.9-1.4,3-3.8,3m10.6-5.3h1.2c1.2,0,1.9-.5,1.9-1.5s-1-1.4-1.9-1.4h-1.2Zm3.8,5.5-2.9-4h-.9v3.8h-2v-10h3.2c2.4,0,3.8,1.2,3.8,3.1a2.9,2.9,0,0,1-2,2.9l2.8,3.8Zm6.3-10.2h2V57.7h-2Zm10.9,10.1h-1.9V49.4h-3.1V47.6h8l.3,1.8h-3.3Zm6.9-10.1h2V57.7h-2Zm10.1,10.3a9.1,9.1,0,0,1-3.4-.7h-.1l.3-1.8h.1a7.6,7.6,0,0,0,3.2.9c1.1,0,1.8-.5,1.8-1.2s-.5-1-1.9-1.5-3.2-1.4-3.2-3a3.1,3.1,0,0,1,3.3-2.9h.1a7.3,7.3,0,0,1,2.9.6h.1l-.3,1.8h-.1a5.7,5.7,0,0,0-2.6-.7c-.9,0-1.5.5-1.5,1.1s.5.9,2,1.5,3.1,1.4,3.1,3.1-1.5,3.1-3.7,3.1m16.3-.5h-2V53.4h-4.4v4.3h-1.9V47.6h1.9v4h4.4v-4h2Zm15.1.2c-2.9,0-4.9-2.1-4.9-5.2s2-5.3,4.9-5.3a5.2,5.2,0,0,1,2.9.8h.1l-.3,1.8h-.1a3.9,3.9,0,0,0-2.5-.9c-1.8,0-2.9,1.3-2.9,3.6s1.1,3.6,2.9,3.6a4.6,4.6,0,0,0,2.6-.9h.1l.3,1.7h-.1a5.6,5.6,0,0,1-3.1.9M204.4,49c-1.7,0-2.9,1.4-2.9,3.5s1.2,3.6,2.9,3.6,2.8-1.4,2.8-3.6-1.2-3.6-2.8-3.6m0,8.8a4.9,4.9,0,0,1-4.9-4.9v-.3a4.9,4.9,0,1,1,9.7,0,4.9,4.9,0,0,1-4.5,5.3h-.3m15.2-.2h-6V47.6h2V56h3.7Zm7.6.2a3.8,3.8,0,0,1-4.1-4.1V47.6h2v6.1c0,1.6.8,2.5,2.2,2.5s2.2-.9,2.2-2.5V47.6h2v6.1a3.9,3.9,0,0,1-3.6,4.2h-.6m15.8-.1h-1.9l-2.7-7.7-.5,7.6h-1.8l.8-10.1h2.6l2.7,7.8,2.6-7.8h2.6l.8,10.1h-1.9l-.6-7.6Zm12.4-6.1h1.3c1.1,0,1.7-.4,1.7-1.2s-.2-1.1-1.6-1.1h-1.4Zm0,4.4H257c1.3,0,2-.4,2-1.4s-.7-1.5-1.9-1.5h-1.6Zm1.4,1.6h-3.3V47.6h3.3c2.1,0,3.4,1,3.4,2.6a2.3,2.3,0,0,1-1.3,2.1,2.3,2.3,0,0,1,1.7,2.3c0,1.9-1.4,3-3.8,3m8.8-10h2V57.7h-2Zm9.3,5.9h2.9l-1.5-4Zm4.6,4.4-1-2.7h-4.2l-.9,2.5h-2l4-10.2h2.1l3.9,10Z"/></svg>