<svg id="Layer_1" data-name="Layer 1" xmlns="http://www.w3.org/2000/svg" viewBox="0 0 24 24"><title>magnify-2</title><path d="M14.4,14.4a5.9,5.9,0,0,0,0-8.2,5.5,5.5,0,0,0-7.78-.12h0L6.5,6.2a5.9,5.9,0,0,0,0,8.2,5.5,5.5,0,0,0,7.78.12h0l.12-.12M22.5,21a1.6,1.6,0,0,1-.5,1.2,1.46,1.46,0,0,1-2.06.14l-.14-.14-4.3-4.4a8.6,8.6,0,0,1-8.4.9,8.8,8.8,0,0,1-2.8-1.9A9.23,9.23,0,0,1,4.3,4,8.8,8.8,0,0,1,7,2a8.6,8.6,0,0,1,6.9,0,8.8,8.8,0,0,1,2.8,1.9,9.3,9.3,0,0,1,2.6,6.4,9,9,0,0,1-1.6,5.1L22,19.9a1.6,1.6,0,0,1,.5,1.2"/></svg>