<svg id="Layer_1" data-name="Layer 1" xmlns="http://www.w3.org/2000/svg" viewBox="0 0 24 24"><title>person</title><path d="M15.47,4a4.42,4.42,0,0,1,1.44,3.31,4.42,4.42,0,0,1-1.44,3.31A4.84,4.84,0,0,1,12,12a4.84,4.84,0,0,1-3.47-1.37A4.42,4.42,0,0,1,7.09,7.31,4.42,4.42,0,0,1,8.53,4,4.85,4.85,0,0,1,12,2.63,4.85,4.85,0,0,1,15.47,4M21,18.21a3,3,0,0,1-.93,2.31,3.54,3.54,0,0,1-2.48.85H6.41a3.54,3.54,0,0,1-2.48-.85A3,3,0,0,1,3,18.21q0-.65,0-1.26a11.78,11.78,0,0,1,.18-1.33,10,10,0,0,1,.34-1.32,6.16,6.16,0,0,1,.55-1.19,4.36,4.36,0,0,1,.79-1A3.36,3.36,0,0,1,6,11.46a4,4,0,0,1,1.43-.24,1.6,1.6,0,0,1,.54.26l1,.59a6.17,6.17,0,0,0,1.38.59,5.69,5.69,0,0,0,3.41,0,6.19,6.19,0,0,0,1.38-.59l1-.59a1.58,1.58,0,0,1,.54-.26,4,4,0,0,1,1.43.24,3.36,3.36,0,0,1,1.09.65,4.34,4.34,0,0,1,.79,1,6.15,6.15,0,0,1,.55,1.19,10,10,0,0,1,.34,1.32A12,12,0,0,1,21,16.95q0,.62,0,1.26"/></svg>