<svg id="Layer_1" data-name="Layer 1" xmlns="http://www.w3.org/2000/svg" viewBox="0 0 24 24"><title>phone-2svg</title><path d="M20.1,17a4.2,4.2,0,0,1-.1.9l-.2.8A3.2,3.2,0,0,1,18.4,20a4.3,4.3,0,0,1-2.1.6h-.6l-.7-.2-.5-.2-.6-.2-.6-.2-2-1a17.2,17.2,0,0,1-3-2.6A17.9,17.9,0,0,1,5.8,13a11.4,11.4,0,0,1-1-2.1l-.2-.6-.2-.7L4.2,9V8.3a4.7,4.7,0,0,1,.5-2.9A3.2,3.2,0,0,1,5.9,3.9l.8-.3H7.8a2.4,2.4,0,0,1,.6.9l.3.7.4.8.4.7.2.3.2.4a.8.8,0,0,1,.1.3,1,1,0,0,1-.3.6L9,9l-.7.6a.9.9,0,0,0-.3.6v.5l.2.3v.2a12.7,12.7,0,0,0,2,2.9,12.1,12.1,0,0,0,2.7,2.1h.2l.3.2h.5l.5-.3.6-.8.6-.8.6-.3h.3l.4.3.3.2.6.4.7.4.6.4a2.4,2.4,0,0,1,.9.6.7.7,0,0,1,0,.3"/></svg>