<svg id="Layer_1" data-name="Layer 1" xmlns="http://www.w3.org/2000/svg" viewBox="0 0 189.99 42.47"><defs><style>.cls-1{fill:#00053e}.cls-2{fill:#62bb46}</style></defs><path id="Shape" class="cls-1" d="M93.93 25.17a16.06 16.06 0 0 1-6.74-1.46l.67-4a14.38 14.38 0 0 0 6.07 1.8c1.35 0 2.36-.56 2.36-1.68s-.56-1.68-3.15-2.58c-3.82-1.46-5.62-2.7-5.62-6 0-3.6 2.92-5.62 6.52-5.62a12 12 0 0 1 5.73 1.24l-.67 4A10.17 10.17 0 0 0 94 9.33c-1.46 0-2.14.56-2.14 1.46s.56 1.57 2.81 2.36c4.16 1.46 5.84 2.92 5.84 6.07.22 4.16-2.81 6-6.63 6z" transform="translate(-.22 -.34)"/><path id="Shape-2" data-name="Shape" class="cls-1" d="M115.72 25.17L114.38 21h-6.74l-1.35 3.93h-4.61l6.85-19.33h5.28l6.63 18.65-4.72.9zm-4.83-14.83l-2.25 6.85h4.49z" transform="translate(-.22 -.34)"/><path id="Shape-3" data-name="Shape" class="cls-1" d="M129.43 25.28c-4.72 0-8-2.58-8-7.86V5.73h4.83V17.3c0 2.47 1.12 3.93 3.26 3.93s3.26-1.46 3.26-3.82V5.73h4.83V17.3c-.11 5.39-3.48 8-8.2 8z" transform="translate(-.22 -.34)"/><path id="Shape-4" data-name="Shape" class="cls-1" d="M147.52 24.94h-6.74V5.73h6.63c6.63 0 10.22 3.82 10.22 9.55s-3.63 9.66-10.11 9.66zm-.23-15.51h-1.68v11.8h1.68c3.37 0 5.51-1.8 5.51-5.84s-2.25-5.95-5.51-5.95z" transform="translate(-.22 -.34)"/><path id="Shape-5" data-name="Shape" class="cls-1" d="M160.21 24.94V5.73h11.91v3.82h-7.3V13h5.62l.56 4h-6.18v4.16h7.53v3.82h-12.14z" transform="translate(-.22 -.34)"/><path id="Shape-6" data-name="Shape" class="cls-1" d="M190.21 24.38l-4.83.79-4.16-6.74h-1.46v6.63H175V5.73h6.74c4.61 0 7.41 2.14 7.41 6.07a5.52 5.52 0 0 1-3.6 5.51l4.61 7.08zm-8.87-15.05h-1.57v5.62h1.46c2 0 3.26-1 3.26-2.81s-1.13-2.81-3.15-2.81z" transform="translate(-.22 -.34)"/><path id="Shape-7" data-name="Shape" class="cls-1" d="M8.2 25.28c-4.72 0-8-2.58-8-7.86V5.84h4.86v11.57c0 2.47 1.12 3.93 3.26 3.93s3.26-1.46 3.26-3.82V5.84h4.82v11.57c-.11 5.28-3.48 7.86-8.2 7.86z" transform="translate(-.22 -.34)"/><path id="Shape-8" data-name="Shape" class="cls-1" d="M25.73 25.06h-6.4V5.84h6.52c4.38 0 6.52 1.91 6.52 4.94a4.2 4.2 0 0 1-2.81 4A4.43 4.43 0 0 1 33 19.44c.11 3.71-2.7 5.62-7.3 5.62zM25.5 9.21h-1.68v4.39h1.57c1.8 0 2.7-.9 2.7-2.25s-.68-2.14-2.59-2.14zm0 7.41h-1.68v4.94h1.8c1.91 0 3-.79 3-2.47s-1.12-2.47-3.15-2.47z" transform="translate(-.22 -.34)"/><path id="Shape-9" data-name="Shape" class="cls-1" d="M44.27 25.39c-5.84 0-9.33-3.93-9.33-9.89s3.71-10 9.21-10a10.48 10.48 0 0 1 5.28 1.24L48.76 11a6.84 6.84 0 0 0-4.27-1.57c-2.92 0-4.83 2.25-4.83 6s2.13 6 5.06 6A9.08 9.08 0 0 0 49.1 20l.56 3.93a10.74 10.74 0 0 1-5.39 1.46z" transform="translate(-.22 -.34)"/><path id="Shape-10" data-name="Shape" class="cls-1" d="M28.09 42.69a8.34 8.34 0 0 1-2.81-.56l.23-1.24a5.55 5.55 0 0 0 2.58.67c.9 0 1.57-.45 1.57-1.12s-.45-.9-1.57-1.35c-1.69-.55-2.59-1.09-2.59-2.35a2.47 2.47 0 0 1 2.7-2.36 7.36 7.36 0 0 1 2.36.45l-.23 1.46a5 5 0 0 0-2.14-.56c-.79 0-1.35.45-1.35.9 0 .67.45.79 1.68 1.24 1.7.55 2.48 1.13 2.48 2.35 0 1.57-1.24 2.47-2.92 2.47z" transform="translate(-.22 -.34)"/><path id="Shape-11" data-name="Shape" class="cls-1" d="M37 42.81c-2.36 0-3.82-1.69-3.82-4.16s1.57-4.16 3.82-4.16a4.88 4.88 0 0 1 2.36.56l-.26 1.35a3.14 3.14 0 0 0-2-.67c-1.57 0-2.47 1.12-2.47 2.92s.9 2.92 2.47 2.92a3.55 3.55 0 0 0 2.13-.79l.21 1.22a4.61 4.61 0 0 1-2.44.81z" transform="translate(-.22 -.34)"/><path id="Shape-12" data-name="Shape" class="cls-1" d="M47.08 42.58V39.1h-3.71v3.48h-1.46v-8h1.46v3.15h3.71V34.6h1.46v8z" transform="translate(-.22 -.34)"/><path id="Shape-13" data-name="Shape" class="cls-1" d="M55.05 42.81a3.88 3.88 0 0 1-3.82-4.16 3.83 3.83 0 1 1 7.64 0 3.88 3.88 0 0 1-3.82 4.16zm0-7.19c-1.57 0-2.36 1.24-2.36 2.92s.9 2.92 2.36 2.92 2.36-1.35 2.36-2.92-.9-2.93-2.36-2.93z" transform="translate(-.22 -.34)"/><path id="Shape-14" data-name="Shape" class="cls-1" d="M64.94 42.81a3.88 3.88 0 0 1-3.82-4.16 3.83 3.83 0 1 1 7.64 0 3.88 3.88 0 0 1-3.82 4.16zm0-7.19c-1.57 0-2.36 1.24-2.36 2.92s.9 2.92 2.36 2.92 2.36-1.35 2.36-2.92-.9-2.93-2.36-2.93z" transform="translate(-.22 -.34)"/><path id="Shape-15" data-name="Shape" class="cls-1" d="M71.34 42.58v-8h1.46v6.74h3l.22 1.24h-4.68z" transform="translate(-.22 -.34)"/><path id="Shape-16" data-name="Shape" class="cls-1" d="M86.29 42.81a3.88 3.88 0 0 1-3.82-4.16 3.83 3.83 0 1 1 7.64 0 3.88 3.88 0 0 1-3.82 4.16zm0-7.19c-1.57 0-2.36 1.24-2.36 2.92s.9 2.92 2.36 2.92 2.36-1.35 2.36-2.92-.9-2.93-2.36-2.93z" transform="translate(-.22 -.34)"/><path id="Shape-17" data-name="Shape" class="cls-1" d="M94.15 35.84V38h2.7l.22 1.24h-2.92v3.37h-1.46v-8h4.83v1.24h-3.37z" transform="translate(-.22 -.34)"/><path id="Shape-18" data-name="Shape" class="cls-1" d="M107 42.58h-2.58v-8H107c1.8 0 2.7.79 2.7 2a1.63 1.63 0 0 1-1.12 1.69 1.85 1.85 0 0 1 1.57 1.91c-.11 1.69-1.35 2.36-3.15 2.36zm-.11-6.74h-1.12v2h1.12c1 0 1.46-.34 1.46-1.12 0-.56-.45-.9-1.46-.9zM107 39h-1.24v2.47H107c1 0 1.68-.34 1.68-1.24S108.08 39 107 39z" transform="translate(-.22 -.34)"/><path id="Shape-19" data-name="Shape" class="cls-1" d="M115.84 42.81a3 3 0 0 1-3.26-3.26V34.6H114v4.83c0 1.35.56 2.13 1.8 2.13s1.91-.79 1.91-2.13V34.6h1.46v4.83a3.13 3.13 0 0 1-3.37 3.37z" transform="translate(-.22 -.34)"/><path id="Shape-20" data-name="Shape" class="cls-1" d="M124.38 42.69a8.34 8.34 0 0 1-2.81-.56l.22-1.24a5.55 5.55 0 0 0 2.58.67c.9 0 1.57-.45 1.57-1.12s-.45-.9-1.57-1.35c-1.68-.56-2.58-1.12-2.58-2.36a2.47 2.47 0 0 1 2.7-2.36 7.36 7.36 0 0 1 2.36.45l-.22 1.35a5 5 0 0 0-2.14-.56c-.79 0-1.35.45-1.35.9 0 .67.45.79 1.68 1.24 1.68.56 2.47 1.12 2.47 2.36 0 1.69-1.12 2.58-2.92 2.58z" transform="translate(-.22 -.34)"/><path id="Shape-21" data-name="Shape" class="cls-1" d="M130 42.58v-8h1.46v8z" transform="translate(-.22 -.34)"/><path id="Shape-22" data-name="Shape" class="cls-1" d="M139.88 42.58l-4-6v6h-1.35v-8h1.46l3.82 5.73V34.6h1.35v8h-1.24z" transform="translate(-.22 -.34)"/><path id="Shape-23" data-name="Shape" class="cls-1" d="M144.15 42.58v-8h4.94v1.24h-3.6v2h2.81l.23 1.24h-3v2.25h3.71v1.24h-5.06z" transform="translate(-.22 -.34)"/><path id="Shape-24" data-name="Shape" class="cls-1" d="M153.92 42.69a8.34 8.34 0 0 1-2.81-.56l.23-1.24a5.55 5.55 0 0 0 2.58.67c.9 0 1.57-.45 1.57-1.12s-.45-.9-1.57-1.35c-1.68-.56-2.58-1.12-2.58-2.36a2.47 2.47 0 0 1 2.7-2.36 7.36 7.36 0 0 1 2.36.45l-.23 1.35a5 5 0 0 0-2.13-.56c-.79 0-1.35.45-1.35.9 0 .67.45.79 1.68 1.24 1.68.56 2.47 1.12 2.47 2.36.11 1.69-1.12 2.58-2.92 2.58z" transform="translate(-.22 -.34)"/><path id="Shape-25" data-name="Shape" class="cls-1" d="M161.68 42.69a8.34 8.34 0 0 1-2.81-.56l.23-1.24a5.55 5.55 0 0 0 2.58.67c.9 0 1.57-.45 1.57-1.12s-.45-.9-1.57-1.35c-1.68-.56-2.58-1.12-2.58-2.36a2.47 2.47 0 0 1 2.7-2.36 7.36 7.36 0 0 1 2.36.45l-.23 1.35a5 5 0 0 0-2.13-.56c-.79 0-1.35.45-1.35.9 0 .67.45.79 1.68 1.24 1.68.56 2.47 1.12 2.47 2.36 0 1.69-1.12 2.58-2.92 2.58z" transform="translate(-.22 -.34)"/><path id="Shape-26" data-name="Shape" class="cls-1" d="M68.54 20.22l-6 4.61V6l6 5.17z" transform="translate(-.22 -.34)"/><path id="Shape-27" data-name="Shape" class="cls-2" d="M75.5 25.5l4.61 3.59v-28l-4.61 4z" transform="translate(-.22 -.34)"/><path id="Shape-28" data-name="Shape" class="cls-2" d="M61.79 25.5l-4.72 3.6v-28l4.72 4z" transform="translate(-.22 -.34)"/><path class="cls-2" d="M74.94 4.72L80 .34H57.19l5.06 4.38z" transform="translate(-.22 -.34)"/></svg>