<svg xmlns="http://www.w3.org/2000/svg" viewBox="0 0 108.8 70.5"><path fill="none" d="M0 0h108.8v70.55H0z"/><path d="M34.1 46.1c-5.9 0-9.4-3.1-9.4-8.4V25.1h4.9v12.4c0 3.1 1.6 4.8 4.5 4.8s4.6-1.6 4.6-4.7V25.1h4.9v12.5c0 5.2-3.7 8.5-9.5 8.5m18.4-12.7h1.8c2.4 0 3.7-.9 3.7-2.5s-1.1-2.4-3.5-2.4h-2zm0 8.9h2.1c1.9 0 4.1-.5 4.1-2.8s-2.3-2.9-4.2-2.9h-2zm2.1 3.5h-6.8V25.1h6.9c5 0 7.8 2 7.8 5.5a4.4 4.4 0 0 1-2.8 4.2c2.5.9 3.7 2.5 3.7 4.9 0 4-3.1 6.1-8.8 6.1m22.5.3c-6.7 0-11-4.2-11-10.7s4.5-10.7 11.2-10.7a12.8 12.8 0 0 1 6.4 1.5h.2l-.9 4.3-.3-.2a9.2 9.2 0 0 0-5.3-1.7c-4 0-6.4 2.6-6.4 6.9s2.5 6.8 6.4 6.8a10.8 10.8 0 0 0 5.7-1.7l.3-.2.7 3.9h-.2a14 14 0 0 1-6.9 1.8"/></svg>