<svg data-name="Layer 1" xmlns="http://www.w3.org/2000/svg" viewBox="0 0 1031.7 135"><path d="M49.4 50.1l5.3 38.3 17.3-29-7.3 31.9 18.7-17.9L73.7 97l15.6-11.6c-7.2 19.7-13.6 30.8-39.8 39.7-26.2-9-32.5-20-39.8-39.7L25.3 97l-9.7-23.6 18.7 17.9-7.4-31.9 17.3 29 5.3-38.3zM22 37.3c-7.9 0-12.7-4.3-12.7-11.4V8.8h6.6v16.8c0 4.2 2.2 6.4 6.2 6.4s6.2-2.2 6.2-6.3V8.8h6.6v17c0 7.1-4.9 11.5-12.9 11.5M46.9 20h2.4c3.2 0 5-1.2 5-3.4s-1.5-3.2-4.7-3.2h-2.7zm0 12.1h2.8c2.6 0 5.6-.7 5.6-3.8s-3.1-3.9-5.7-3.9h-2.7zm2.8 4.7h-9.2v-28h9.3c6.8 0 10.6 2.7 10.6 7.4a6 6 0 0 1-3.8 5.7q5.1 1.8 5.1 6.6c0 5.4-4.3 8.3-12 8.3m30.4.5c-9.1 0-14.9-5.7-14.9-14.5S71.3 8.3 80.3 8.3a17.3 17.3 0 0 1 8.6 2h.2l-1 5.7-.4-.3a12.5 12.5 0 0 0-7.2-2.4c-5.4 0-8.6 3.5-8.6 9.3s3.3 9.3 8.7 9.3a14.6 14.6 0 0 0 7.7-2.3l.4-.3.9 5.3h-.2a19 19 0 0 1-9.3 2.4M0 0v73.2c0 30.8 16.7 53 49.5 61.8C82.3 126.3 99 104 99 73.2V0zm49.5 131.1c-31-8.8-45.8-29.2-45.8-58.4v-69h91.5v69c0 29.2-14.8 49.6-45.7 58.4zm0-84.4c6.9 0 7.8 2.8 13.4 2.8s6.5-2.8 13.4-2.8 7.9 2.8 13.4 2.8v-6.4c-5.5 0-6.5-2.7-13.4-2.7s-7.9 2.8-13.4 2.7-6.5-2.7-13.4-2.7-7.8 2.8-13.4 2.7-6.5-2.7-13.4-2.7-7.9 2.8-13.4 2.7v6.4c5.5 0 6.5-2.8 13.4-2.8s7.9 2.8 13.4 2.8 6.4-2.8 13.4-2.8zm4.3 11.6c3.3.8 4.9 2.3 9 2.3s6.5-2.8 13.4-2.8 7.9 2.8 13.4 2.8v-6.4c-5.5 0-6.5-2.7-13.4-2.7s-7.9 2.8-13.4 2.7-5.9-1.7-9.9-2.4zm-17.7 2.3c4.1 0 5.7-1.5 9-2.3l.9-6.6c-4 .7-5.5 2.5-9.9 2.4s-6.5-2.7-13.4-2.7-7.9 2.8-13.4 2.7v6.4c5.5 0 6.5-2.8 13.4-2.8s7.8 3 13.4 2.9zM55.4 70a25 25 0 0 0 5.6 1.7l3.9-6.4h-2c-3.8 0-5.5-1.3-8.3-2.1zm17.7-.8l3.1-.2c6.9 0 7.9 2.8 13.4 2.8v-6.4c-5.5 0-6.5-2.7-13.4-2.7h-1.6zm-47.3 0l-1.5-6.6h-1.6c-6.9 0-7.9 2.8-13.4 2.7v6.5c5.5 0 6.5-2.8 13.4-2.8zm12.1 2.5a24.9 24.9 0 0 0 5.6-1.7l.9-6.7c-2.9.8-4.5 2.1-8.3 2.1h-2zm120.9-34.9H154V16.4h-7.6v-4.3h19.8l.6 4.3h-8zm37.5 0h-4.8V26.1h-10.7v10.7H176V12.1h4.8v9.7h10.7v-9.7h4.8zm29.7 0h-15.9V12.1h15.6v4.3h-10.8v5.4h8.6l.7 4.3h-9.3v6.4H226v4.3zm37.3.5c-6.3 0-10.1-3.8-10.1-10.1V12.1h4.8v14.8c0 4 1.9 6.2 5.3 6.2s5.4-2.1 5.4-6.1V12h4.8v14.9c0 6.5-3.8 10.3-10.3 10.3zm43.7-.5h-4.2L291 19.5v17.3h-4.4V12.1h4.7l11.2 16.6V12.1h4.4v24.7zm18.6 0h-4.9V12.1h4.8v24.7zm23.4.4h-4.3l-9.5-24.5 4.8-1.1 7.1 19.3L354 12h4.9l-9.8 25.1zm34.9-.4h-16V12.1h15.6v4.3h-10.7v5.4h8.6l.7 4.3h-9.3v6.4h11.1v4.3zm26.2.3l-7.1-9.7h-2.3v9.4h-4.8V12.1h7.8c5.9 0 9.4 2.9 9.4 7.7a7 7 0 0 1-4.9 7l6.9 9.2zm-9.3-13.5h2.9c3 0 4.6-1.3 4.6-3.8s-2.5-3.5-4.6-3.5h-2.9zm31.9 13.5a22.2 22.2 0 0 1-8.4-1.8h-.2l.7-4.4.3.2a18.4 18.4 0 0 0 7.8 2.1c2.7 0 4.5-1.2 4.5-3s-1.2-2.6-4.6-3.7c-5.2-1.8-7.8-3.4-7.8-7.4s3.4-7.2 8.4-7.2a17.9 17.9 0 0 1 7.1 1.5h.2l-.7 4.5-.3-.2a13.9 13.9 0 0 0-6.4-1.8c-2.2 0-3.8 1.1-3.8 2.6s1.1 2.3 5 3.6 7.5 3.4 7.5 7.5-3.7 7.6-9.1 7.6zm26-.3h-4.8V12.1h4.8zm21.8 0h-4.8V16.4h-7.6v-4.3h19.8l.6 4.3h-8zm24.9 0h-4.8v-9.6l-8.9-14.6 4.9-1.1 6.4 11.3 6.2-10.8h5.3l-9.2 15.1v9.7zm40.2.5c-5.9 0-11.9-4.4-11.9-12.8s6-12.9 11.9-12.9 11.9 4.4 11.9 12.8-6 12.9-11.9 12.9zm0-21.5c-4.2 0-7 3.5-7 8.6s3 8.8 7 8.8 7-3.5 7-8.7-2.9-8.7-7-8.7zm27.8 21h-4.8V12.1h15.1v4.3h-10.3v5.9h8.2l.7 4.3h-8.9zm44.7 0H610V12.1h8.1c5.2 0 8.3 2.4 8.3 6.4a5.5 5.5 0 0 1-3.1 5.2 5.7 5.7 0 0 1 4.2 5.7c0 4.8-3.3 7.4-9.4 7.4zm-3.5-4h3.6q4.8 0 4.8-3.3c0-2.2-1.6-3.6-4.7-3.6h-3.6v6.9zm0-10.9h3.1c2.8 0 4.1-1 4.1-3.1s-.4-2.7-4-2.7h-3.3v5.8zm38.7 15.2l-7.1-9.7h-2.3v9.4h-4.8V12.1h7.8c5.9 0 9.4 2.9 9.4 7.7a7 7 0 0 1-4.9 7l6.9 9.2-5 1.1zM644 23.6h2.9c3 0 4.6-1.3 4.6-3.8s-2.5-3.5-4.6-3.5H644zm29.7 13.2h-4.9V12.1h4.9zm21.8 0h-4.8V16.4h-7.6v-4.3h19.8l.6 4.3h-8zm21.7 0h-4.8V12.1h4.8zm20 .3a22.2 22.2 0 0 1-8.4-1.8h-.2l.7-4.4.3.2a18.5 18.5 0 0 0 7.8 2.1c2.7 0 4.5-1.2 4.5-3s-1.2-2.6-4.6-3.7c-5.2-1.8-7.8-3.4-7.8-7.4s3.5-7.2 8.4-7.2a17.9 17.9 0 0 1 7.1 1.5h.2l-.7 4.5-.3-.2a13.9 13.9 0 0 0-6.5-1.9c-2.1 0-3.8 1.1-3.8 2.6s1.1 2.3 5 3.6 7.5 3.4 7.5 7.5-3.7 7.6-9.1 7.6zm40-.3h-4.8V26.1h-10.7v10.7h-4.8V12.1h4.8v9.7h10.6v-9.7h4.8v24.7zm37.1.5c-7.1 0-11.9-5.1-11.9-12.8s4.8-12.9 11.9-12.9a12.6 12.6 0 0 1 7.1 1.9h.1l-.8 4.5-.3-.2a9.6 9.6 0 0 0-6-2.2c-4.5 0-7.1 3.3-7.1 8.8s2.8 8.7 7.2 8.7a11.3 11.3 0 0 0 6.4-2.2l.3-.2.7 4.2h-.1a13.7 13.7 0 0 1-7.5 2.2zm28.5 0c-5.9 0-11.9-4.4-11.9-12.8s6-12.9 11.9-12.9 11.9 4.4 11.9 12.8-6 12.9-11.9 12.9zm0-21.5c-4.2 0-7 3.5-7 8.6s3 8.8 7 8.8 7-3.5 7-8.7-2.9-8.7-7-8.7zm37.1 21h-14.6V12.1h4.8v20.5h9.2l.7 4.2zm18.6.5c-6.3 0-10.1-3.8-10.1-10.1V12.1h4.8v14.8c0 4 1.9 6.2 5.3 6.2s5.4-2.1 5.4-6.1V12h4.9v14.9c0 6.5-3.9 10.3-10.3 10.3zm39-.4h-4.6l-6.6-18.8-1.4 18.7h-4.4l2-24.7h6.5l6.5 19 6.6-19h6.4l2 24.7h-4.8l-1.4-18.7-6.6 18.8zm34-.1h-8.1V12.1h8.1c5.2 0 8.3 2.4 8.3 6.4a5.5 5.5 0 0 1-3.1 5.2 5.7 5.7 0 0 1 4.2 5.7c0 4.8-3.3 7.4-9.4 7.4zm-3.5-4h3.6q4.8 0 4.8-3.3c0-2.2-1.6-3.6-4.7-3.6h-3.6v6.9zm0-10.9h3.1c2.8 0 4.1-1 4.1-3.1s-.4-2.7-4-2.7h-3.3v5.8zm29.8 14.9h-4.9V12.1h4.9zm29.2.5l-2.4-6.5h-10.4l-2.3 6.1h-4.7l9.8-25h5.1l9.6 24.4-4.8 1.1zm-11.2-10.8h7.2l-3.6-9.7z" fill="#002145"/></svg>