<svg xmlns="http://www.w3.org/2000/svg" viewBox="0 0 64 64" aria-labelledby="title"
aria-describedby="desc" role="img" xmlns:xlink="http://www.w3.org/1999/xlink">
  <title>Twitter</title>
  <desc>A line styled icon from Orion Icon Library.</desc>
  <path data-name="layer1"
  d="M60.448 15.109a24.276 24.276 0 0 1-3.288.968.5.5 0 0 1-.451-.853 15.146 15.146 0 0 0 3.119-4.263.5.5 0 0 0-.677-.662 18.6 18.6 0 0 1-6.527 2.071 12.92 12.92 0 0 0-9-3.75A12.363 12.363 0 0 0 31.25 20.994a12.727 12.727 0 0 0 .281 2.719c-9.048-.274-19.61-4.647-25.781-12.249a.5.5 0 0 0-.83.073 12.475 12.475 0 0 0 2.956 14.79.5.5 0 0 1-.344.887 7.749 7.749 0 0 1-3.1-.8.5.5 0 0 0-.725.477 11.653 11.653 0 0 0 7.979 10.567.5.5 0 0 1-.09.964 12.567 12.567 0 0 1-2.834 0 .506.506 0 0 0-.536.635c.849 3.282 5.092 7.125 9.839 7.652a.5.5 0 0 1 .267.87 20.943 20.943 0 0 1-14 4.577.5.5 0 0 0-.255.942 37.29 37.29 0 0 0 17.33 4.266 34.5 34.5 0 0 0 34.687-36.182v-.469a21.11 21.11 0 0 0 4.934-4.839.5.5 0 0 0-.58-.765z"
  fill="none" stroke="#202020" stroke-linecap="round" stroke-miterlimit="10"
  stroke-width="2" stroke-linejoin="round"></path>
</svg>