<svg xmlns="http://www.w3.org/2000/svg" viewBox="0 0 64 64" aria-labelledby="title"
aria-describedby="desc" role="img" xmlns:xlink="http://www.w3.org/1999/xlink">
  <title>Vimeo</title>
  <desc>A line styled icon from Orion Icon Library.</desc>
  <path data-name="layer1"
  d="M52.531 6.744c-7.594 0-13.594 4.969-16.219 14.25 2.813-1.312 7.875-2.063 8.344 2.625.375 4.688-6.656 16.687-9.75 16.687s-5.344-13.594-6.188-19.781C27.969 14.244 26.469 7.4 20.656 7.4 14.75 7.4 7.25 16.588 2 20.713l2.719 3.75s3.937-3.094 5.25-2.812c3.563.938 6.563 15.375 8.156 20.906s3.469 16.688 11.156 16.688C41.563 59.244 62 28.682 62 18.651c0-6.563-1.875-11.907-9.469-11.907z"
  fill="none" stroke="#202020" stroke-linecap="round" stroke-miterlimit="10"
  stroke-width="2" stroke-linejoin="round"></path>
</svg>