<svg xmlns="http://www.w3.org/2000/svg" viewBox="0 0 64 64" aria-labelledby="title"
aria-describedby="desc" role="img" xmlns:xlink="http://www.w3.org/1999/xlink">
  <title>Setting</title>
  <desc>A line styled icon from Orion Icon Library.</desc>
  <circle data-name="layer2"
  cx="32" cy="32" r="10" fill="none" stroke="#202020" stroke-linecap="round"
  stroke-miterlimit="10" stroke-width="2" stroke-linejoin="round"></circle>
  <path data-name="layer1" d="M61 27h-6.551a22.857 22.857 0 0 0-3.041-7.336l4.634-4.634a1 1 0 0 0 0-1.414l-5.657-5.658a1 1 0 0 0-1.414 0l-4.634 4.634A22.857 22.857 0 0 0 37 9.552V3a1 1 0 0 0-1-1h-8a1 1 0 0 0-1 1v6.552a22.857 22.857 0 0 0-7.336 3.041l-4.635-4.635a1 1 0 0 0-1.414 0l-5.657 5.657a1 1 0 0 0 0 1.414l4.634 4.634A22.857 22.857 0 0 0 9.552 27H3a1 1 0 0 0-1 1v8a1 1 0 0 0 1 1h6.552a22.856 22.856 0 0 0 3.041 7.336l-4.635 4.635a1 1 0 0 0 0 1.414l5.657 5.657a1 1 0 0 0 1.414 0l4.634-4.634A22.86 22.86 0 0 0 27 54.449V61a1 1 0 0 0 1 1h8a1 1 0 0 0 1-1v-6.551a22.86 22.86 0 0 0 7.336-3.041l4.634 4.634a1 1 0 0 0 1.414 0l5.657-5.657a1 1 0 0 0 0-1.414l-4.634-4.634A22.856 22.856 0 0 0 54.449 37H61a1 1 0 0 0 1-1v-8a1 1 0 0 0-1-1z"
  fill="none" stroke="#202020" stroke-linecap="round" stroke-miterlimit="10"
  stroke-width="2" stroke-linejoin="round"></path>
</svg>