<svg id="Layer_1" data-name="Layer 1" xmlns="http://www.w3.org/2000/svg" viewBox="0 0 551.58 1122.77"><defs><style>.cls-1{fill:#fff;}</style></defs><title>wellbeing-bg-white</title><circle class="cls-1" cx="73.04" cy="282.17" r="36.67" transform="translate(-215.83 321.03) rotate(-83.15)"/><circle class="cls-1" cx="192.26" cy="366.8" r="36.67" transform="translate(-194.85 513.93) rotate(-83.15)"/><circle class="cls-1" cx="342.05" cy="381.03" r="36.67" transform="translate(-77.06 675.19) rotate(-83.15)"/><circle class="cls-1" cx="207.25" cy="422.23" r="36.67" transform="translate(-236.69 577.63) rotate(-83.15)"/><circle class="cls-1" cx="397.81" cy="542.34" r="36.67" transform="translate(-188.12 872.61) rotate(-83.15)"/><circle class="cls-1" cx="423.94" cy="420.04" r="36.67" transform="translate(-43.67 790.84) rotate(-83.15)"/><circle class="cls-1" cx="278.01" cy="320.99" r="36.67" transform="translate(-73.85 558.73) rotate(-83.15)"/><circle class="cls-1" cx="112.93" cy="211.6" r="36.67" transform="translate(-110.64 298.48) rotate(-83.15)"/><circle class="cls-1" cx="280.18" cy="212.06" r="36.67" transform="translate(36.21 464.94) rotate(-83.15)"/><circle class="cls-1" cx="184.38" cy="147.85" r="36.67" transform="translate(15.59 313.28) rotate(-83.15)"/><circle class="cls-1" cx="230.8" cy="500.34" r="36.67" transform="translate(-293.5 669.8) rotate(-83.15)"/><circle class="cls-1" cx="300.47" cy="578.34" r="36.67" transform="translate(-309.59 807.68) rotate(-83.15)"/><circle class="cls-1" cx="348.99" cy="656.16" r="36.67" transform="translate(-344.12 924.38) rotate(-83.15)"/><circle class="cls-1" cx="224.24" cy="813.37" r="36.67" transform="translate(-610.07 938.98) rotate(-83.15)"/><circle class="cls-1" cx="49.66" cy="886.54" r="36.67" transform="translate(-836.48 830.09) rotate(-83.15)"/><circle class="cls-1" cx="120.61" cy="1009.1" r="36.67" transform="translate(-895.68 1008.47) rotate(-83.15)"/><circle class="cls-1" cx="183.41" cy="731.61" r="36.67" transform="translate(-564.86 826.44) rotate(-83.15)"/><circle class="cls-1" cx="340.01" cy="873.23" r="36.67" transform="translate(-567.54 1106.64) rotate(-83.15)"/><circle class="cls-1" cx="207.24" cy="674.25" r="36.67" transform="translate(-486.92 799.58) rotate(-83.15)"/><circle class="cls-1" cx="111.19" cy="815.05" r="36.67" transform="translate(-711.3 828.21) rotate(-83.15)"/><circle class="cls-1" cx="49.52" cy="975.6" r="27.5" transform="translate(-875.85 662.63) rotate(-68.41)"/><circle class="cls-1" cx="159.97" cy="904.01" r="27.5" transform="translate(-739.47 720.09) rotate(-68.41)"/><circle class="cls-1" cx="30.08" cy="251.49" r="27.5" transform="translate(-214.83 186.92) rotate(-68.41)"/><circle class="cls-1" cx="129.38" cy="778.92" r="27.5" transform="translate(-642.49 612.59) rotate(-68.41)"/><circle class="cls-1" cx="117.02" cy="914.23" r="27.5" transform="translate(-776.13 686.61) rotate(-68.41)"/><circle class="cls-1" cx="325.66" cy="967.42" r="27.5" transform="translate(-693.71 914.23) rotate(-68.41)"/><circle class="cls-1" cx="158.95" cy="1095.26" r="27.5" transform="translate(-917.95 840.02) rotate(-68.41)"/><circle class="cls-1" cx="204.97" cy="975.6" r="27.5" transform="translate(-777.6 807.18) rotate(-68.41)"/><circle class="cls-1" cx="131.34" cy="325.13" r="27.5" transform="translate(-219.31 327.61) rotate(-68.41)"/><circle class="cls-1" cx="275.75" cy="408.46" r="27.5" transform="translate(-205.52 514.55) rotate(-68.41)"/><circle class="cls-1" cx="282.63" cy="507.61" r="27.5" transform="translate(-293.37 583.62) rotate(-68.41)"/><circle class="cls-1" cx="344.59" cy="272.2" r="27.5" transform="translate(-35.32 492.45) rotate(-68.41)"/><circle class="cls-1" cx="373.73" cy="164.56" r="27.5" transform="translate(83.19 451.51) rotate(-68.41)"/><circle class="cls-1" cx="183.5" cy="828.32" r="27.5" transform="translate(-654.23 694.13) rotate(-68.41)"/><circle class="cls-1" cx="183.5" cy="282.17" r="27.5" transform="translate(-146.4 348.96) rotate(-68.41)"/><circle class="cls-1" cx="254.02" cy="703.87" r="27.5" transform="translate(-493.94 681.05) rotate(-68.41)"/><circle class="cls-1" cx="211.11" cy="249.45" r="27.5" transform="translate(-98.52 353.95) rotate(-68.41)"/><circle class="cls-1" cx="110.07" cy="102.86" r="27.5" transform="translate(-26.08 167.35) rotate(-68.41)"/><circle class="cls-1" cx="27.51" cy="75.09" r="27.5" transform="translate(-52.44 73.04) rotate(-68.41)"/><circle class="cls-1" cx="58.52" cy="169.14" r="27.5" transform="translate(-120.28 161.31) rotate(-68.41)"/><circle class="cls-1" cx="128.27" cy="27.51" r="27.5" transform="translate(55.49 136.65) rotate(-68.41)"/><circle class="cls-1" cx="250.9" cy="909" r="27.5" transform="translate(-686.64 807.8) rotate(-68.41)"/><circle class="cls-1" cx="223.7" cy="567.34" r="27.5" transform="translate(-386.15 566.57) rotate(-68.41)"/><circle class="cls-1" cx="272.86" cy="643.82" r="27.5" transform="translate(-426.2 660.61) rotate(-68.41)"/><circle class="cls-1" cx="390.73" cy="720.09" r="27.5" transform="translate(-422.62 818.41) rotate(-68.41)"/><circle class="cls-1" cx="318.31" cy="770.67" r="27.5" transform="translate(-515.42 783.04) rotate(-68.41)"/><circle class="cls-1" cx="437.96" cy="311" r="27.5" transform="translate(-36.7 562.44) rotate(-63.29)"/><circle class="cls-1" cx="524.07" cy="410.02" r="27.5" transform="translate(-77.75 693.88) rotate(-63.29)"/><circle class="cls-1" cx="450.44" cy="803.78" r="27.5" transform="translate(-470.03 844.87) rotate(-63.29)"/><circle class="cls-1" cx="338.63" cy="464.47" r="27.5" transform="translate(-228.48 558.2) rotate(-63.29)"/><circle class="cls-1" cx="477.03" cy="593.09" r="27.5" transform="translate(-267.19 752.64) rotate(-63.29)"/><circle class="cls-1" cx="214.24" cy="624.9" r="27.5" transform="translate(-445.65 594.15) rotate(-68.41)"/></svg>