<svg xmlns="http://www.w3.org/2000/svg" viewBox="0 0 181.93 142.39"><defs><style>.cls-1{fill:#43b4e4;}.cls-2{fill:#041e41;}</style></defs><title>wellbeing-logo</title><path class="cls-1" d="M504.42 306.67a4.3 4.3 0 1 1 4.78-3.75 4.3 4.3 0 0 1-4.78 3.75" transform="translate(-389.76 -208.79)"/><path class="cls-1" d="M505.75 317.89a4.3 4.3 0 1 0-4.78 3.76 4.3 4.3 0 0 0 4.78-3.76" transform="translate(-389.76 -208.79)"/><path class="cls-1" d="M510.67 330.12a4.3 4.3 0 1 0-4.78 3.76 4.3 4.3 0 0 0 4.78-3.76" transform="translate(-389.76 -208.79)"/><path class="cls-1" d="M483.41 321.1a4.3 4.3 0 1 0-4.78 3.76 4.3 4.3 0 0 0 4.78-3.76" transform="translate(-389.76 -208.79)"/><path class="cls-1" d="M477.53 319.62a4.3 4.3 0 1 0-4.78 3.76 4.3 4.3 0 0 0 4.78-3.76" transform="translate(-389.76 -208.79)"/><path class="cls-1" d="M472.13 329a4.3 4.3 0 1 0-4.78 3.76 4.3 4.3 0 0 0 4.78-3.76" transform="translate(-389.76 -208.79)"/><path class="cls-1" d="M468.77 318.13a4.3 4.3 0 1 0-4.78 3.76 4.3 4.3 0 0 0 4.78-3.76" transform="translate(-389.76 -208.79)"/><path class="cls-1" d="M465.48 343.35a4.3 4.3 0 1 0-4.78 3.76 4.3 4.3 0 0 0 4.78-3.76" transform="translate(-389.76 -208.79)"/><path class="cls-1" d="M477.82 339.24a4.3 4.3 0 1 0-4.82 3.76 4.3 4.3 0 0 0 4.78-3.76" transform="translate(-389.76 -208.79)"/><path class="cls-1" d="M490.27 336.1a4.3 4.3 0 1 0-4.78 3.76 4.3 4.3 0 0 0 4.78-3.76" transform="translate(-389.76 -208.79)"/><path class="cls-1" d="M448.19 303.09a4.3 4.3 0 1 0-4.78 3.76 4.3 4.3 0 0 0 4.78-3.76" transform="translate(-389.76 -208.79)"/><path class="cls-1" d="M439.33 321.71a4.3 4.3 0 1 0-4.78 3.76 4.3 4.3 0 0 0 4.78-3.76" transform="translate(-389.76 -208.79)"/><path class="cls-1" d="M446.09 312.26a4.3 4.3 0 1 0-4.78 3.76 4.3 4.3 0 0 0 4.78-3.76" transform="translate(-389.76 -208.79)"/><path class="cls-1" d="M456.73 320.16a4.3 4.3 0 1 0-4.78 3.76 4.3 4.3 0 0 0 4.78-3.76" transform="translate(-389.76 -208.79)"/><path class="cls-1" d="M447 265.39a4.3 4.3 0 1 0-4.78 3.76 4.3 4.3 0 0 0 4.78-3.76" transform="translate(-389.76 -208.79)"/><path class="cls-1" d="M456.93 251.41a4.3 4.3 0 1 0-4.78 3.76 4.3 4.3 0 0 0 4.78-3.76" transform="translate(-389.76 -208.79)"/><path class="cls-1" d="M458.6 233.86a4.3 4.3 0 1 0-4.78 3.76 4.3 4.3 0 0 0 4.78-3.76" transform="translate(-389.76 -208.79)"/><path class="cls-1" d="M463.43 249.66a4.3 4.3 0 1 0-4.78 3.76 4.3 4.3 0 0 0 4.78-3.76" transform="translate(-389.76 -208.79)"/><path class="cls-1" d="M477.51 227.32a4.3 4.3 0 1 0-4.78 3.76 4.3 4.3 0 0 0 4.78-3.76" transform="translate(-389.76 -208.79)"/><path class="cls-1" d="M463.18 224.26a4.3 4.3 0 1 0-4.78 3.76 4.3 4.3 0 0 0 4.78-3.76" transform="translate(-389.76 -208.79)"/><path class="cls-1" d="M451.56 241.36a4.3 4.3 0 1 0-4.78 3.76 4.3 4.3 0 0 0 4.78-3.76" transform="translate(-389.76 -208.79)"/><path class="cls-1" d="M438.74 260.71a4.3 4.3 0 1 0-4.78 3.76 4.3 4.3 0 0 0 4.78-3.76" transform="translate(-389.76 -208.79)"/><path class="cls-1" d="M437.53 305.41a4.3 4.3 0 1 0-4.78 3.76 4.3 4.3 0 0 0 4.78-3.76" transform="translate(-389.76 -208.79)"/><path class="cls-1" d="M438.8 241.11a4.3 4.3 0 1 0-4.78 3.76 4.3 4.3 0 0 0 4.78-3.76" transform="translate(-389.76 -208.79)"/><path class="cls-1" d="M431.27 252.34a4.3 4.3 0 1 0-4.78 3.76 4.3 4.3 0 0 0 4.78-3.76" transform="translate(-389.76 -208.79)"/><path class="cls-1" d="M472.59 246.9a4.3 4.3 0 1 0-4.78 3.76 4.3 4.3 0 0 0 4.78-3.76" transform="translate(-389.76 -208.79)"/><path class="cls-1" d="M481.73 238.73a4.3 4.3 0 1 0-4.78 3.76 4.3 4.3 0 0 0 4.78-3.76" transform="translate(-389.76 -208.79)"/><path class="cls-1" d="M490.85 233a4.3 4.3 0 1 0-4.78 3.76 4.3 4.3 0 0 0 4.78-3.76" transform="translate(-389.76 -208.79)"/><path class="cls-1" d="M509.28 247.67a4.3 4.3 0 1 0-4.78 3.76 4.3 4.3 0 0 0 4.78-3.76" transform="translate(-389.76 -208.79)"/><path class="cls-1" d="M497.22 313.11a4.3 4.3 0 1 0-4.78 3.76 4.3 4.3 0 0 0 4.78-3.76" transform="translate(-389.76 -208.79)"/><path class="cls-1" d="M497.82 323.28a4.3 4.3 0 1 0-4.82 3.72 4.3 4.3 0 0 0 4.78-3.76" transform="translate(-389.76 -208.79)"/><path class="cls-1" d="M452.6 329.26a4.3 4.3 0 1 0-4.78 3.76 4.3 4.3 0 0 0 4.78-3.76" transform="translate(-389.76 -208.79)"/><path class="cls-1" d="M514.68 297.08a4.3 4.3 0 1 0-4.78 3.76 4.3 4.3 0 0 0 4.78-3.76" transform="translate(-389.76 -208.79)"/><path class="cls-1" d="M523.93 301.05a4.3 4.3 0 1 0-4.78 3.76 4.3 4.3 0 0 0 4.78-3.76" transform="translate(-389.76 -208.79)"/><path class="cls-1" d="M517.86 268.13a4.3 4.3 0 1 0-4.78 3.76 4.3 4.3 0 0 0 4.78-3.76" transform="translate(-389.76 -208.79)"/><path class="cls-1" d="M532.22 259.81a4.3 4.3 0 1 0-4.78 3.76 4.3 4.3 0 0 0 4.78-3.76" transform="translate(-389.76 -208.79)"/><path class="cls-1" d="M499.7 252.45a4.3 4.3 0 1 0-4.78 3.76 4.3 4.3 0 0 0 4.78-3.76" transform="translate(-389.76 -208.79)"/><path class="cls-1" d="M516.29 234.1a4.3 4.3 0 1 0-4.78 3.76 4.3 4.3 0 0 0 4.78-3.76" transform="translate(-389.76 -208.79)"/><path class="cls-1" d="M493 249.66a4.3 4.3 0 1 0-4.78 3.76 4.3 4.3 0 0 0 4.78-3.76" transform="translate(-389.76 -208.79)"/><path class="cls-1" d="M509.48 260.92a4.3 4.3 0 1 0-4.78 3.76 4.3 4.3 0 0 0 4.78-3.76" transform="translate(-389.76 -208.79)"/><path class="cls-1" d="M523.07 312.27a4.3 4.3 0 1 0-4.78 3.76 4.3 4.3 0 0 0 4.78-3.76" transform="translate(-389.76 -208.79)"/><path class="cls-1" d="M525.21 264.64a3.22 3.22 0 1 0 1.81 4.18 3.22 3.22 0 0 0-1.81-4.18" transform="translate(-389.76 -208.79)"/><path class="cls-1" d="M537 307.55a3.22 3.22 0 1 0 1.81 4.18 3.22 3.22 0 0 0-1.81-4.18" transform="translate(-389.76 -208.79)"/><path class="cls-1" d="M516.82 251.69a3.22 3.22 0 1 0 1.81 4.18 3.22 3.22 0 0 0-1.81-4.18" transform="translate(-389.76 -208.79)"/><path class="cls-1" d="M508.84 314a3.22 3.22 0 1 0 1.81 4.18 3.22 3.22 0 0 0-1.81-4.18" transform="translate(-389.76 -208.79)"/><path class="cls-1" d="M525.93 322.42a3.22 3.22 0 1 0 1.81 4.18 3.22 3.22 0 0 0-1.81-4.18" transform="translate(-389.76 -208.79)"/><path class="cls-1" d="M443.38 294.07a3.22 3.22 0 1 0 1.81 4.18 3.22 3.22 0 0 0-1.81-4.18" transform="translate(-389.76 -208.79)"/><path class="cls-1" d="M440.34 266.91a3.22 3.22 0 1 0 1.81 4.18 3.22 3.22 0 0 0-1.81-4.18" transform="translate(-389.76 -208.79)"/><path class="cls-1" d="M500.14 305.16a3.22 3.22 0 1 0 1.81 4.18 3.22 3.22 0 0 0-1.81-4.18" transform="translate(-389.76 -208.79)"/><path class="cls-1" d="M496.68 328.4a3.22 3.22 0 1 0 1.81 4.18 3.22 3.22 0 0 0-1.81-4.18" transform="translate(-389.76 -208.79)"/><path class="cls-1" d="M527.85 302.52a3.22 3.22 0 1 0 1.81 4.18 3.22 3.22 0 0 0-1.81-4.18" transform="translate(-389.76 -208.79)"/><path class="cls-1" d="M510.37 306.72a3.22 3.22 0 1 0 1.81 4.18 3.22 3.22 0 0 0-1.81-4.18" transform="translate(-389.76 -208.79)"/><path class="cls-1" d="M532.95 293.17a3.22 3.22 0 1 0 1.81 4.18 3.22 3.22 0 0 0-1.81-4.18" transform="translate(-389.76 -208.79)"/><path class="cls-1" d="M514.42 320.86a3.22 3.22 0 1 0 1.81 4.18 3.22 3.22 0 0 0-1.81-4.18" transform="translate(-389.76 -208.79)"/><path class="cls-1" d="M502.16 255.28a3.22 3.22 0 1 0 1.81 4.18 3.22 3.22 0 0 0-1.81-4.18" transform="translate(-389.76 -208.79)"/><path class="cls-1" d="M518 256.72a3.22 3.22 0 1 0 1.81 4.18 3.22 3.22 0 0 0-1.81-4.18" transform="translate(-389.76 -208.79)"/><path class="cls-1" d="M524.25 232.27a3.22 3.22 0 1 0 1.81 4.18 3.22 3.22 0 0 0-1.81-4.18" transform="translate(-389.76 -208.79)"/><path class="cls-1" d="M539.24 251.81a3.22 3.22 0 1 0 1.81 4.18 3.22 3.22 0 0 0-1.81-4.18" transform="translate(-389.76 -208.79)"/><path class="cls-1" d="M525.21 246.41a3.22 3.22 0 1 0 1.79 4.19 3.22 3.22 0 0 0-1.81-4.18" transform="translate(-389.76 -208.79)"/><path class="cls-1" d="M486.94 313.12a3.22 3.22 0 1 0 1.81 4.18 3.22 3.22 0 0 0-1.81-4.18" transform="translate(-389.76 -208.79)"/><path class="cls-1" d="M458.67 310.6a3.22 3.22 0 1 0 1.81 4.18 3.22 3.22 0 0 0-1.81-4.18" transform="translate(-389.76 -208.79)"/><path class="cls-1" d="M460.47 321.2a3.22 3.22 0 1 0 1.81 4.18 3.22 3.22 0 0 0-1.81-4.18" transform="translate(-389.76 -208.79)"/><path class="cls-1" d="M493.9 338.78a3.22 3.22 0 1 0 1.81 4.18 3.22 3.22 0 0 0-1.81-4.18" transform="translate(-389.76 -208.79)"/><path class="cls-1" d="M485.89 345a3.22 3.22 0 1 0 1.81 4.18 3.22 3.22 0 0 0-1.81-4.18" transform="translate(-389.76 -208.79)"/><path class="cls-1" d="M478 326.45a3.22 3.22 0 1 0 1.81 4.18 3.22 3.22 0 0 0-1.81-4.18" transform="translate(-389.76 -208.79)"/><path class="cls-1" d="M457.91 331.48a3.22 3.22 0 1 0 1.81 4.18 3.22 3.22 0 0 0-1.81-4.18" transform="translate(-389.76 -208.79)"/><path class="cls-1" d="M452.08 308.6a3.22 3.22 0 1 0 1.81 4.18 3.22 3.22 0 0 0-1.81-4.18" transform="translate(-389.76 -208.79)"/><path class="cls-1" d="M450.87 305a3.22 3.22 0 1 0 1.81 4.18 3.22 3.22 0 0 0-1.81-4.18" transform="translate(-389.76 -208.79)"/><path class="cls-1" d="M442.84 338.79a3.22 3.22 0 1 0 1.81 4.18 3.22 3.22 0 0 0-1.81-4.18" transform="translate(-389.76 -208.79)"/><path class="cls-1" d="M449 255a3.22 3.22 0 1 0 1.81 4.18 3.22 3.22 0 0 0-1.81-4.18" transform="translate(-389.76 -208.79)"/><path class="cls-1" d="M458.74 238.12a3.22 3.22 0 1 0 1.81 4.18 3.22 3.22 0 0 0-1.81-4.18" transform="translate(-389.76 -208.79)"/><path class="cls-1" d="M470.36 237.31a3.22 3.22 0 1 0 1.81 4.18 3.22 3.22 0 0 0-1.81-4.18" transform="translate(-389.76 -208.79)"/><path class="cls-1" d="M442.77 230a3.22 3.22 0 1 0 1.81 4.18 3.22 3.22 0 0 0-1.81-4.18" transform="translate(-389.76 -208.79)"/><path class="cls-1" d="M430.15 226.63a3.22 3.22 0 1 0 1.81 4.18 3.22 3.22 0 0 0-1.81-4.18" transform="translate(-389.76 -208.79)"/><path class="cls-1" d="M508 248.93a3.22 3.22 0 1 0 1.81 4.18 3.22 3.22 0 0 0-1.81-4.18" transform="translate(-389.76 -208.79)"/><path class="cls-1" d="M443.93 248.93a3.22 3.22 0 1 0 1.81 4.18 3.22 3.22 0 0 0-1.81-4.18" transform="translate(-389.76 -208.79)"/><path class="cls-1" d="M493.36 240.67a3.22 3.22 0 1 0 1.81 4.18 3.22 3.22 0 0 0-1.81-4.18" transform="translate(-389.76 -208.79)"/><path class="cls-1" d="M440.1 245.7a3.22 3.22 0 1 0 1.81 4.18 3.22 3.22 0 0 0-1.81-4.18" transform="translate(-389.76 -208.79)"/><path class="cls-1" d="M422.92 257.54a3.22 3.22 0 1 0 1.81 4.18 3.22 3.22 0 0 0-1.81-4.18" transform="translate(-389.76 -208.79)"/><path class="cls-1" d="M419.66 267.22a3.22 3.22 0 1 0 1.81 4.18 3.22 3.22 0 0 0-1.81-4.18" transform="translate(-389.76 -208.79)"/><path class="cls-1" d="M435 294.32a3.22 3.22 0 1 0 2.62-3.73 3.22 3.22 0 0 0-2.62 3.73" transform="translate(-389.76 -208.79)"/><path class="cls-1" d="M424 315.82a3.22 3.22 0 1 0 2.62-3.73 3.22 3.22 0 0 0-2.62 3.73" transform="translate(-389.76 -208.79)"/><path class="cls-1" d="M428.57 331.76a3.22 3.22 0 1 0 2.63-3.76 3.22 3.22 0 0 0-2.62 3.73" transform="translate(-389.76 -208.79)"/><path class="cls-1" d="M411.76 306.79a3.22 3.22 0 1 0 2.62-3.73 3.22 3.22 0 0 0-2.62 3.73" transform="translate(-389.76 -208.79)"/><path class="cls-1" d="M479.64 325.32a3.22 3.22 0 1 0 2.62-3.73 3.22 3.22 0 0 0-2.62 3.73" transform="translate(-389.76 -208.79)"/><path class="cls-1" d="M416.32 295.12a3.22 3.22 0 1 0 2.62-3.73 3.22 3.22 0 0 0-2.62 3.73" transform="translate(-389.76 -208.79)"/><path class="cls-1" d="M425.54 296.92a3.22 3.22 0 1 0 2.62-3.73 3.22 3.22 0 0 0-2.62 3.73" transform="translate(-389.76 -208.79)"/><path class="cls-1" d="M420.13 303.94a3.22 3.22 0 1 0 2.62-3.73 3.22 3.22 0 0 0-2.62 3.73" transform="translate(-389.76 -208.79)"/><path class="cls-1" d="M441.05 320.63a3.22 3.22 0 1 0 2.62-3.73 3.22 3.22 0 0 0-2.62 3.73" transform="translate(-389.76 -208.79)"/><path class="cls-1" d="M430.68 263.58a3.22 3.22 0 1 0 1.81 4.18 3.22 3.22 0 0 0-1.81-4.18" transform="translate(-389.76 -208.79)"/><path class="cls-1" d="M414.08 255.41a3.22 3.22 0 1 0 1.81 4.18 3.22 3.22 0 0 0-1.81-4.18" transform="translate(-389.76 -208.79)"/><path class="cls-1" d="M517.41 241a3.22 3.22 0 1 0 1.81 4.18 3.22 3.22 0 0 0-1.81-4.18" transform="translate(-389.76 -208.79)"/><path class="cls-1" d="M477.36 244.22a3.22 3.22 0 1 0 1.81 4.18 3.22 3.22 0 0 0-1.81-4.18" transform="translate(-389.76 -208.79)"/><path class="cls-1" d="M486.32 238.46a3.22 3.22 0 1 0 1.81 4.18 3.22 3.22 0 0 0-1.81-4.18" transform="translate(-389.76 -208.79)"/><path class="cls-1" d="M495.26 224.64a3.22 3.22 0 1 0 1.81 4.18 3.22 3.22 0 0 0-1.81-4.18" transform="translate(-389.76 -208.79)"/><path class="cls-1" d="M501.19 233.13a3.22 3.22 0 1 0 1.81 4.18 3.22 3.22 0 0 0-1.81-4.18" transform="translate(-389.76 -208.79)"/><path class="cls-1" d="M449 223.55a3.22 3.22 0 1 0-4.33 1.43 3.22 3.22 0 0 0 4.33-1.43" transform="translate(-389.76 -208.79)"/><path class="cls-1" d="M460.61 213.46a3.22 3.22 0 1 0-4.33 1.43 3.22 3.22 0 0 0 4.33-1.43" transform="translate(-389.76 -208.79)"/><path class="cls-1" d="M506.77 222.09a3.22 3.22 0 1 0-4.33 1.43 3.22 3.22 0 0 0 4.33-1.43" transform="translate(-389.76 -208.79)"/><path class="cls-1" d="M467 235.19a3.22 3.22 0 1 0-4.33 1.43 3.22 3.22 0 0 0 4.33-1.43" transform="translate(-389.76 -208.79)"/><path class="cls-1" d="M482.07 219a3.22 3.22 0 1 0-4.33 1.43 3.22 3.22 0 0 0 4.33-1.43" transform="translate(-389.76 -208.79)"/><path class="cls-1" d="M484.11 245.33a3.22 3.22 0 1 0 1.81 4.18 3.22 3.22 0 0 0-1.81-4.18" transform="translate(-389.76 -208.79)"/><path class="cls-2" d="M6.65 80.94c-4.16 0-6.65-2.23-6.65-6v-9h3.45v8.81c0 2.17 1.14 3.37 3.22 3.37s3.27-1.14 3.27-3.31v-8.8h3.47v8.9c0 3.72-2.59 6-6.77 6"/><path class="cls-2" d="M410.4 280.69h1.25c1.68 0 2.61-.63 2.61-1.77s-.81-1.67-2.47-1.67h-1.39v3.44zm0 6.33h1.48c1.34 0 2.94-.34 2.94-2s-1.62-2-3-2h-1.42v4zm1.48 2.45h-4.82v-14.67h4.94c3.57 0 5.55 1.38 5.55 3.9a3.16 3.16 0 0 1-2 3 3.49 3.49 0 0 1 2.66 3.47c0 2.8-2.23 4.35-6.27 4.35" transform="translate(-389.76 -208.79)"/><path class="cls-2" d="M428.78 289.73c-4.75 0-7.82-3-7.82-7.57s3.18-7.61 7.92-7.61a9.07 9.07 0 0 1 4.52 1.06l.11.06-.51 3-.23-.15a6.57 6.57 0 0 0-3.77-1.24c-2.82 0-4.51 1.82-4.51 4.87s1.74 4.85 4.51 4.85a7.68 7.68 0 0 0 4-1.22l.22-.14.49 2.79-.11.06a9.93 9.93 0 0 1-4.87 1.25" transform="translate(-389.76 -208.79)"/><polygon class="cls-2" points="68.51 80.62 65.22 80.62 62.56 71.08 59.96 80.62 56.67 80.62 52.36 66.41 56.01 65.94 58.55 75.71 61.15 66.14 64.32 66.14 66.92 75.68 69.41 66.14 72.81 66.14 68.51 80.62"/><path class="cls-2" d="M471.45 289.67c-4 0-7.06-2.3-7.06-7.51 0-4.69 2.81-7.54 6.58-7.54 4.34 0 6.28 3.26 6.28 7.36v.87h-9.3c.18 2.84 1.7 4 3.92 4a8.42 8.42 0 0 0 5-1.79l.42 2.81a9.87 9.87 0 0 1-5.77 1.76m-3.52-9.02h5.77c-.24-2.24-1.14-3.5-2.87-3.5-1.43 0-2.63 1.17-2.9 3.5" transform="translate(-389.76 -208.79)"/><polygon class="cls-2" points="92 80.59 92 59.57 95.59 59 95.59 80.59 92 80.59"/><polygon class="cls-2" points="101 80.59 101 59.57 104.59 59 104.59 80.59 101 80.59"/><path class="cls-2" d="M505.68 289.55a18.2 18.2 0 0 1-5.92-1v-20.2l3.59-.57v8.76a5.68 5.68 0 0 1 4.1-1.91c3.05 0 5.44 2.27 5.44 7.12 0 5.32-2.9 7.8-7.21 7.8m.84-11.75a4.39 4.39 0 0 0-3.17 1.88v6.55a5.74 5.74 0 0 0 2.27.39c2.27 0 3.65-1.37 3.65-4.66 0-2.78-1.14-4.16-2.75-4.16" transform="translate(-389.76 -208.79)"/><path class="cls-2" d="M522.69 289.67c-4 0-7.06-2.3-7.06-7.51 0-4.69 2.81-7.54 6.58-7.54 4.34 0 6.28 3.26 6.28 7.36v.87h-9.3c.18 2.84 1.7 4 3.92 4a8.42 8.42 0 0 0 5-1.79l.42 2.81a9.87 9.87 0 0 1-5.77 1.76m-3.47-9.06h5.71c-.24-2.24-1.14-3.5-2.87-3.5-1.43 0-2.63 1.17-2.9 3.5" transform="translate(-389.76 -208.79)"/><path class="cls-2" d="M534.53 272.51a2 2 0 0 1-2.15-2 2.14 2.14 0 0 1 4.28 0 2 2 0 0 1-2.12 2m-1.83 2.42h3.59v14.44h-3.6v-14.44z" transform="translate(-389.76 -208.79)"/><path class="cls-2" d="M550.28 289.37v-9.45c0-1.26-.54-2.12-1.85-2.12a4.82 4.82 0 0 0-3.29 1.82v9.75h-3.59v-14.44h3l.33 2a7 7 0 0 1 4.81-2.33c2.69 0 4.13 1.64 4.13 4.34v10.41h-3.59z" transform="translate(-389.76 -208.79)"/><path class="cls-2" d="M563.67 294.81c-3.92 0-6.88-1.2-6.88-3.59 0-1.37.93-2.39 2.72-3.38a2 2 0 0 1-.84-1.58c0-.81.63-1.59 1.82-2.27a4.55 4.55 0 0 1-2.72-4.25c0-3.14 2.57-5.11 5.8-5.11a6.3 6.3 0 0 1 4.1 1.35l3.53-1.26.48 2.87-2.63.18a4.93 4.93 0 0 1 .39 1.88c0 3.11-2.66 5-5.77 5a7.6 7.6 0 0 1-1.2-.06 1.05 1.05 0 0 0-.57.75c0 .48.45.6 2.69.93l1.85.18c3 .42 4.81 1.35 4.81 3.56 0 3.11-3.41 4.84-7.6 4.84m-2.24-6.13a2.76 2.76 0 0 0-1.52 2.15c0 1.08 1.28 1.85 4 1.85s4-.87 4-1.94c0-.78-.63-1.23-2.42-1.5l-1.94-.24a21 21 0 0 1-2.15-.33m2.18-11.75a2.53 2.53 0 0 0-2.51 2.81 2.45 2.45 0 0 0 2.51 2.63 2.5 2.5 0 0 0 2.54-2.72 2.53 2.53 0 0 0-2.54-2.72" transform="translate(-389.76 -208.79)"/></svg>