<svg id="Layer_1" data-name="Layer 1" xmlns="http://www.w3.org/2000/svg" viewBox="0 0 181.93 27.03"><defs><style>.cls-1{fill:#041e41;}</style></defs><title>wellbeing-wordmark</title><path class="cls-1" d="M395.93,288.73c-4.16,0-6.65-2.23-6.65-6v-9h3.45v8.81c0,2.17,1.14,3.37,3.22,3.37s3.27-1.14,3.27-3.31V273.8h3.48v8.9c0,3.72-2.59,6-6.77,6" transform="translate(-389.28 -266.78)"/><path class="cls-1" d="M409.92,279.69h1.25c1.68,0,2.61-.63,2.61-1.77s-0.81-1.67-2.47-1.67h-1.39v3.44Zm0,6.33h1.48c1.34,0,2.94-.34,2.94-2s-1.62-2-3-2h-1.44v4Zm1.48,2.45h-4.82V273.8h4.89c3.57,0,5.55,1.38,5.55,3.9a3.16,3.16,0,0,1-2,3,3.49,3.49,0,0,1,2.66,3.47c0,2.8-2.23,4.35-6.27,4.35" transform="translate(-389.28 -266.78)"/><path class="cls-1" d="M428.3,288.73c-4.75,0-7.82-3-7.82-7.57s3.18-7.61,7.92-7.61a9.07,9.07,0,0,1,4.52,1.06l0.11,0.06-0.51,3-0.23-.15a6.57,6.57,0,0,0-3.77-1.24c-2.82,0-4.51,1.82-4.51,4.87s1.75,4.85,4.56,4.85a7.68,7.68,0,0,0,4-1.22l0.22-.14,0.49,2.79-0.11.06a9.93,9.93,0,0,1-4.87,1.25" transform="translate(-389.28 -266.78)"/><polygon class="cls-1" points="68.51 21.62 65.22 21.62 62.56 12.08 59.96 21.62 56.67 21.62 52.36 7.42 56.01 6.94 58.55 16.71 61.15 7.15 64.32 7.15 66.92 16.68 69.41 7.15 72.81 7.15 68.51 21.62"/><path class="cls-1" d="M471,288.67c-4,0-7.06-2.3-7.06-7.51,0-4.69,2.81-7.54,6.58-7.54,4.33,0,6.28,3.26,6.28,7.36,0,0.3,0,.66,0,0.87h-9.3c0.18,2.84,1.7,4,3.92,4a8.42,8.42,0,0,0,5-1.79l0.42,2.81a9.87,9.87,0,0,1-5.77,1.76m-3.47-9.06h5.77c-0.24-2.24-1.14-3.5-2.87-3.5-1.43,0-2.63,1.17-2.9,3.5" transform="translate(-389.28 -266.78)"/><polygon class="cls-1" points="92 21.59 92 0.57 95.59 0 95.59 21.59 92 21.59"/><polygon class="cls-1" points="101 21.59 101 0.57 104.59 0 104.59 21.59 101 21.59"/><path class="cls-1" d="M505.19,288.55a18.2,18.2,0,0,1-5.92-1V267.35l3.59-.57v8.76a5.68,5.68,0,0,1,4.1-1.91c3.05,0,5.44,2.27,5.44,7.12,0,5.32-2.9,7.8-7.21,7.8M506,276.8a4.39,4.39,0,0,0-3.17,1.88v6.55a5.74,5.74,0,0,0,2.27.39c2.27,0,3.65-1.37,3.65-4.66,0-2.78-1.14-4.16-2.75-4.16" transform="translate(-389.28 -266.78)"/><path class="cls-1" d="M522.21,288.67c-4,0-7.06-2.3-7.06-7.51,0-4.69,2.81-7.54,6.58-7.54,4.33,0,6.28,3.26,6.28,7.36,0,0.3,0,.66,0,0.87h-9.3c0.18,2.84,1.7,4,3.92,4a8.42,8.42,0,0,0,5-1.79l0.42,2.81a9.87,9.87,0,0,1-5.77,1.76m-3.47-9.06h5.77c-0.24-2.24-1.14-3.5-2.87-3.5-1.43,0-2.63,1.17-2.9,3.5" transform="translate(-389.28 -266.78)"/><path class="cls-1" d="M534,271.51a2,2,0,0,1-2.15-2,2.14,2.14,0,0,1,4.28,0,2,2,0,0,1-2.12,2m-1.83,2.42h3.59v14.44h-3.59V273.93Z" transform="translate(-389.28 -266.78)"/><path class="cls-1" d="M549.8,288.37v-9.45c0-1.26-.54-2.12-1.85-2.12a4.82,4.82,0,0,0-3.29,1.82v9.75h-3.59V273.93h3l0.33,2a7,7,0,0,1,4.81-2.33c2.69,0,4.13,1.64,4.13,4.34v10.41H549.8Z" transform="translate(-389.28 -266.78)"/><path class="cls-1" d="M563.19,293.81c-3.92,0-6.88-1.2-6.88-3.59,0-1.37.93-2.39,2.72-3.38a2,2,0,0,1-.84-1.58c0-.81.63-1.59,1.82-2.27a4.55,4.55,0,0,1-2.72-4.25c0-3.14,2.57-5.11,5.8-5.11a6.3,6.3,0,0,1,4.1,1.35l3.53-1.26,0.48,2.87-2.63.18a4.93,4.93,0,0,1,.39,1.88c0,3.11-2.66,5-5.77,5a7.61,7.61,0,0,1-1.2-.06,1.05,1.05,0,0,0-.57.75c0,0.48.45,0.6,2.69,0.93l1.85,0.18c3,0.42,4.81,1.35,4.81,3.56,0,3.11-3.41,4.84-7.59,4.84m-2.24-6.13a2.76,2.76,0,0,0-1.53,2.15c0,1.08,1.28,1.85,4,1.85s4-.87,4-1.94c0-.78-0.63-1.23-2.42-1.5L563.1,288a21,21,0,0,1-2.15-.33m2.18-11.75a2.53,2.53,0,0,0-2.51,2.81,2.45,2.45,0,0,0,2.51,2.63,2.5,2.5,0,0,0,2.54-2.72,2.53,2.53,0,0,0-2.54-2.72" transform="translate(-389.28 -266.78)"/></svg>