<svg id="Layer_1" data-name="Layer 1" xmlns="http://www.w3.org/2000/svg" viewBox="0 0 551.58 1122.75"><defs><style>.cls-1{fill:#fff;}</style></defs><title>wellbeing-bg-white--rev</title><circle class="cls-1" cx="478.54" cy="282.17" r="36.67" transform="translate(-30.24 59.1) rotate(-6.85)"/><circle class="cls-1" cx="359.31" cy="366.79" r="36.67" transform="translate(-41.18 45.48) rotate(-6.85)"/><circle class="cls-1" cx="209.53" cy="381.03" r="36.67" transform="translate(-43.95 27.72) rotate(-6.85)"/><circle class="cls-1" cx="344.33" cy="422.22" r="36.67" transform="translate(-47.9 44.09) rotate(-6.85)"/><circle class="cls-1" cx="153.78" cy="542.32" r="36.67" transform="translate(-63.58 22.22) rotate(-6.85)"/><circle class="cls-1" cx="127.64" cy="420.02" r="36.67" transform="translate(-49.18 18.23) rotate(-6.85)"/><circle class="cls-1" cx="273.57" cy="320.99" r="36.67" transform="translate(-36.33 34.93) rotate(-6.85)"/><circle class="cls-1" cx="438.66" cy="211.59" r="36.67" transform="translate(-22.1 53.83) rotate(-6.85)"/><circle class="cls-1" cx="271.4" cy="212.05" r="36.67" transform="translate(-23.35 33.89) rotate(-6.85)"/><circle class="cls-1" cx="367.2" cy="147.85" r="36.67" transform="translate(-15.01 44.86) rotate(-6.85)"/><circle class="cls-1" cx="320.78" cy="500.32" r="36.67" transform="translate(-57.38 41.84) rotate(-6.85)"/><circle class="cls-1" cx="251.12" cy="578.33" r="36.67" transform="translate(-67.18 34.08) rotate(-6.85)"/><circle class="cls-1" cx="202.6" cy="656.14" r="36.67" transform="translate(-76.81 28.85) rotate(-6.85)"/><circle class="cls-1" cx="327.34" cy="813.35" r="36.67" transform="translate(-94.67 44.85) rotate(-6.85)"/><circle class="cls-1" cx="501.92" cy="886.52" r="36.67" transform="translate(-102.15 66.2) rotate(-6.85)"/><circle class="cls-1" cx="430.98" cy="1009.08" r="36.67" transform="translate(-117.27 58.61) rotate(-6.85)"/><circle class="cls-1" cx="368.17" cy="731.6" r="36.67" transform="translate(-84.63 49.14) rotate(-6.85)"/><circle class="cls-1" cx="211.57" cy="873.21" r="36.67" transform="translate(-102.63 31.47) rotate(-6.85)"/><circle class="cls-1" cx="344.34" cy="674.24" r="36.67" transform="translate(-77.96 45.89) rotate(-6.85)"/><circle class="cls-1" cx="440.38" cy="815.03" r="36.67" transform="translate(-94.06 58.35) rotate(-6.85)"/><circle class="cls-1" cx="502.05" cy="975.57" r="27.5" transform="translate(-323.75 253.19) rotate(-21.59)"/><circle class="cls-1" cx="391.6" cy="903.98" r="27.5" transform="translate(-305.16 207.52) rotate(-21.59)"/><circle class="cls-1" cx="521.49" cy="251.49" r="27.5" transform="translate(-55.95 209.54) rotate(-21.59)"/><circle class="cls-1" cx="422.19" cy="778.9" r="27.5" transform="translate(-256.98 210) rotate(-21.59)"/><circle class="cls-1" cx="434.56" cy="914.2" r="27.5" transform="translate(-305.9 224.05) rotate(-21.59)"/><circle class="cls-1" cx="225.91" cy="967.39" r="27.5" transform="translate(-340.11 151) rotate(-21.59)"/><circle class="cls-1" cx="392.62" cy="1095.24" r="27.5" transform="translate(-375.46 221.32) rotate(-21.59)"/><circle class="cls-1" cx="346.6" cy="975.57" r="27.5" transform="translate(-334.65 195.99) rotate(-21.59)"/><circle class="cls-1" cx="420.24" cy="325.12" r="27.5" transform="translate(-90.15 177.45) rotate(-21.59)"/><circle class="cls-1" cx="275.83" cy="408.44" r="27.5" transform="translate(-130.94 130.16) rotate(-21.59)"/><circle class="cls-1" cx="268.95" cy="507.6" r="27.5" transform="translate(-167.91 134.58) rotate(-21.59)"/><circle class="cls-1" cx="207" cy="272.2" r="27.5" transform="translate(-85.63 95.27) rotate(-21.59)"/><circle class="cls-1" cx="177.85" cy="164.55" r="27.5" transform="translate(-48.07 76.99) rotate(-21.59)"/><circle class="cls-1" cx="368.08" cy="828.29" r="27.5" transform="translate(-278.95 193.56) rotate(-21.59)"/><circle class="cls-1" cx="368.08" cy="282.16" r="27.5" transform="translate(-78 155.24) rotate(-21.59)"/><circle class="cls-1" cx="297.56" cy="703.85" r="27.5" transform="translate(-238.11 158.88) rotate(-21.59)"/><circle class="cls-1" cx="340.47" cy="249.44" r="27.5" transform="translate(-67.89 142.79) rotate(-21.59)"/><circle class="cls-1" cx="441.51" cy="102.85" r="27.5" transform="translate(-6.87 169.68) rotate(-21.59)"/><circle class="cls-1" cx="524.07" cy="75.09" r="27.5" transform="translate(9.14 198.11) rotate(-21.59)"/><circle class="cls-1" cx="493.05" cy="169.13" r="27.5" transform="translate(-27.64 193.3) rotate(-21.59)"/><circle class="cls-1" cx="423.31" cy="27.5" r="27.5" transform="translate(19.58 157.7) rotate(-21.59)"/><circle class="cls-1" cx="300.67" cy="908.98" r="27.5" transform="translate(-313.37 174.41) rotate(-21.59)"/><circle class="cls-1" cx="327.88" cy="567.32" r="27.5" transform="translate(-185.75 160.46) rotate(-21.59)"/><circle class="cls-1" cx="278.73" cy="643.8" r="27.5" transform="translate(-217.33 147.73) rotate(-21.59)"/><circle class="cls-1" cx="160.85" cy="720.06" r="27.5" transform="translate(-253.67 109.71) rotate(-21.59)"/><circle class="cls-1" cx="233.27" cy="770.64" r="27.5" transform="translate(-267.2 139.91) rotate(-21.59)"/><circle class="cls-1" cx="113.61" cy="311" r="27.5" transform="translate(-127.66 84.26) rotate(-26.71)"/><circle class="cls-1" cx="27.5" cy="410.03" r="27.5" transform="translate(-181.36 56.12) rotate(-26.71)"/><circle class="cls-1" cx="101.13" cy="803.77" r="27.5" transform="translate(-350.48 131.23) rotate(-26.71)"/><circle class="cls-1" cx="212.94" cy="464.47" r="27.5" transform="translate(-186.04 145.28) rotate(-26.71)"/><circle class="cls-1" cx="74.55" cy="593.09" r="27.5" transform="translate(-258.62 96.8) rotate(-26.71)"/><circle class="cls-1" cx="337.34" cy="624.88" r="27.5" transform="translate(-206.26 167.97) rotate(-21.59)"/></svg>